<?xml version="1.0" encoding="UTF-8"?>
<!DOCTYPE svg PUBLIC "-//W3C//DTD SVG 1.1//EN" "http://www.w3.org/Graphics/SVG/1.1/DTD/svg11.dtd">
<svg xmlns="http://www.w3.org/2000/svg" version="1.1" width="460px" height="460px" style="shape-rendering:geometricPrecision; text-rendering:geometricPrecision; image-rendering:optimizeQuality; fill-rule:evenodd; clip-rule:evenodd" xmlns:xlink="http://www.w3.org/1999/xlink">
<g><path style="opacity:0.997" fill="#0b8778" d="M 162.5,105.5 C 217.985,100.743 260.318,121.743 289.5,168.5C 282.091,172.956 274.591,177.289 267,181.5C 238.513,138.107 199.013,123.273 148.5,137C 106.597,153.792 84.9302,184.792 83.5,230C 85.3316,275.335 107.332,306.335 149.5,323C 191.074,334.237 226.574,324.403 256,293.5C 259.667,288.167 263.333,282.833 267,277.5C 274.5,281.655 281.834,285.988 289,290.5C 269.678,325.072 240.178,345.905 200.5,353C 143.707,359.096 100.54,337.93 71,289.5C 51.6853,249.567 51.6853,209.567 71,169.5C 92.1236,134.694 122.624,113.361 162.5,105.5 Z"/></g>
<g><path style="opacity:0.998" fill="#0b8476" d="M 329.5,171.5 C 331.833,171.5 334.167,171.5 336.5,171.5C 336.5,199.167 336.5,226.833 336.5,254.5C 334.167,254.5 331.833,254.5 329.5,254.5C 329.5,226.833 329.5,199.167 329.5,171.5 Z"/></g>
<g><path style="opacity:0.966" fill="#0b8a7b" d="M 352.5,171.5 C 354.833,171.5 357.167,171.5 359.5,171.5C 359.5,199.167 359.5,226.833 359.5,254.5C 357.167,254.5 354.833,254.5 352.5,254.5C 352.5,226.833 352.5,199.167 352.5,171.5 Z"/></g>
<g><path style="opacity:0.989" fill="#0b7f70" d="M 284.5,208.5 C 298.665,205.666 308.831,210.666 315,223.5C 317.976,247.523 307.476,257.69 283.5,254C 270.468,246.57 266.301,235.736 271,221.5C 274.076,215.589 278.576,211.255 284.5,208.5 Z M 289.5,215.5 C 306.021,216.563 311.521,224.896 306,240.5C 297.626,249.382 288.96,249.715 280,241.5C 274.373,229.543 277.54,220.876 289.5,215.5 Z"/></g>
<g><path style="opacity:0.259" fill="#042f29" d="M 376.5,209.5 C 373.612,208.99 371.279,209.656 369.5,211.5C 368.596,210.791 368.263,209.791 368.5,208.5C 371.385,208.194 374.052,208.527 376.5,209.5 Z"/></g>
<g><path style="opacity:0.266" fill="#042e29" d="M 404.5,209.5 C 406.948,208.527 409.615,208.194 412.5,208.5C 412.737,209.791 412.404,210.791 411.5,211.5C 409.721,209.656 407.388,208.99 404.5,209.5 Z"/></g>
<g><path style="opacity:0.992" fill="#0b7f71" d="M 376.5,209.5 C 381.151,220.806 385.817,232.14 390.5,243.5C 395.365,232.238 400.031,220.904 404.5,209.5C 407.388,208.99 409.721,209.656 411.5,211.5C 403.085,234.747 394.085,257.747 384.5,280.5C 381.615,280.806 378.948,280.473 376.5,279.5C 379.819,271.219 383.153,262.885 386.5,254.5C 380.546,240.262 374.879,225.929 369.5,211.5C 371.279,209.656 373.612,208.99 376.5,209.5 Z"/></g>
<g><path style="opacity:0.498" fill="#073933" d="M 376.5,279.5 C 378.948,280.473 381.615,280.806 384.5,280.5C 381.645,281.803 378.645,281.803 375.5,280.5C 375.624,279.893 375.957,279.56 376.5,279.5 Z"/></g>
</svg>
