<?xml version="1.0" encoding="UTF-8"?>
<svg version="1.1" xmlns="http://www.w3.org/2000/svg" width="218" height="179">
<path d="M0 0 C1.19716141 -0.01293594 2.39432281 -0.02587189 3.62776184 -0.03919983 C4.93796799 -0.04817291 6.24817413 -0.057146 7.5980835 -0.06639099 C8.99454532 -0.07920888 10.39100425 -0.0923445 11.78746033 -0.10577393 C24.52212842 -0.22155204 37.25756827 -0.27829339 49.99266434 -0.32254124 C59.4011753 -0.35578482 68.80872388 -0.41536571 78.21682191 -0.51005226 C84.83861583 -0.57443796 91.4601478 -0.60808591 98.08224273 -0.61929077 C102.03445963 -0.62684108 105.98551237 -0.64793254 109.93738556 -0.70231819 C113.65771475 -0.75291562 117.37626859 -0.76531629 121.09688759 -0.74906731 C123.10414625 -0.74995461 125.11126643 -0.79047496 127.11808777 -0.8323822 C133.37416719 -0.7679677 137.24530139 -0.50135513 141.82699585 3.9980011 C142.97142205 5.35833981 144.08005092 6.74990933 145.14398193 8.17408752 C148.87106564 12.78336615 152.59520645 16.60769645 157.34929848 20.14949894 C169.5492172 29.31147768 181.68211497 39.36627033 184.29068375 55.11898994 C185.85932971 68.82630179 185.16575435 82.64158107 184.43707275 96.38343811 C184.21109313 101.22747619 184.11596179 106.07016007 184.02687263 110.91837025 C183.84196016 120.94582585 183.57408852 130.97277075 183.07415771 140.98976135 C183.02503235 142.34326942 183.02503235 142.34326942 182.97491455 143.72412109 C182.40910078 153.59769385 178.51813059 161.5851811 171.14398193 168.17408752 C162.0489535 174.35572551 153.37517784 175.04133137 142.73382568 174.95045471 C141.11606436 174.95860302 139.49831418 174.9692962 137.88058472 174.98231506 C133.52084241 175.00947542 129.16195987 174.99914406 124.80220413 174.98004055 C120.21941217 174.9647495 115.63668919 174.97896551 111.05389404 174.98835754 C103.36080843 174.99924448 95.66806949 174.98496425 87.97503662 174.95631409 C79.10654509 174.92366576 70.23888145 174.93424483 61.37040997 174.96727252 C53.72835852 174.99458342 46.08655493 174.99830229 38.44447041 174.9826405 C33.89233665 174.97333164 29.34059082 174.97191308 24.78848267 174.99185944 C20.50672931 175.00931384 16.2260334 174.9969509 11.94439316 174.9624939 C10.38203555 174.95462465 8.81958746 174.95672774 7.257267 174.97006989 C-3.74167036 175.05527214 -12.92461427 173.54059098 -21.35246277 165.91540146 C-29.35302176 157.72022173 -30.30303516 149.67257586 -30.2600708 138.65870667 C-30.26693405 137.42353806 -30.2737973 136.18836945 -30.28086853 134.91577148 C-30.29597427 131.54779176 -30.29764714 128.18036832 -30.29192615 124.81239629 C-30.28882253 121.99197681 -30.29493971 119.17160674 -30.30096489 116.35119432 C-30.31498188 109.69323945 -30.31347245 103.03541297 -30.30206299 96.37745667 C-30.29058401 89.52792812 -30.30465985 82.67879124 -30.33145946 75.82931429 C-30.35366968 69.93009483 -30.36024193 64.03099783 -30.35438305 58.13173956 C-30.35102499 54.6164689 -30.35335123 51.10144923 -30.37063408 47.58621407 C-30.38908049 43.66360951 -30.37486141 39.74148077 -30.35772705 35.81886292 C-30.36739502 34.66689423 -30.37706299 33.51492554 -30.38702393 32.32804871 C-30.29654603 22.41166231 -27.60755006 15.25696474 -20.85601807 7.96705627 C-14.65304641 2.40618911 -8.21577466 0.07476852 0 0 Z " fill="#F3F1DE" transform="translate(32.85601806640625,1.8259124755859375)"/>
<path d="M0 0 C1.19716141 -0.01293594 2.39432281 -0.02587189 3.62776184 -0.03919983 C4.93796799 -0.04817291 6.24817413 -0.057146 7.5980835 -0.06639099 C8.99454532 -0.07920888 10.39100425 -0.0923445 11.78746033 -0.10577393 C24.52212842 -0.22155204 37.25756827 -0.27829339 49.99266434 -0.32254124 C59.4011753 -0.35578482 68.80872388 -0.41536571 78.21682191 -0.51005226 C84.83861583 -0.57443796 91.4601478 -0.60808591 98.08224273 -0.61929077 C102.03445963 -0.62684108 105.98551237 -0.64793254 109.93738556 -0.70231819 C113.65771475 -0.75291562 117.37626859 -0.76531629 121.09688759 -0.74906731 C123.10414625 -0.74995461 125.11126643 -0.79047496 127.11808777 -0.8323822 C133.37416719 -0.7679677 137.24530139 -0.50135513 141.82699585 3.9980011 C142.97142205 5.35833981 144.08005092 6.74990933 145.14398193 8.17408752 C148.87106564 12.78336615 152.59520645 16.60769645 157.34929848 20.14949894 C169.5492172 29.31147768 181.68211497 39.36627033 184.29068375 55.11898994 C185.85932971 68.82630179 185.16575435 82.64158107 184.43707275 96.38343811 C184.21109313 101.22747619 184.11596179 106.07016007 184.02687263 110.91837025 C183.84196016 120.94582585 183.57408852 130.97277075 183.07415771 140.98976135 C183.02503235 142.34326942 183.02503235 142.34326942 182.97491455 143.72412109 C182.40910078 153.59769385 178.51813059 161.5851811 171.14398193 168.17408752 C162.0489535 174.35572551 153.37517784 175.04133137 142.73382568 174.95045471 C141.11606436 174.95860302 139.49831418 174.9692962 137.88058472 174.98231506 C133.52084241 175.00947542 129.16195987 174.99914406 124.80220413 174.98004055 C120.21941217 174.9647495 115.63668919 174.97896551 111.05389404 174.98835754 C103.36080843 174.99924448 95.66806949 174.98496425 87.97503662 174.95631409 C79.10654509 174.92366576 70.23888145 174.93424483 61.37040997 174.96727252 C53.72835852 174.99458342 46.08655493 174.99830229 38.44447041 174.9826405 C33.89233665 174.97333164 29.34059082 174.97191308 24.78848267 174.99185944 C20.50672931 175.00931384 16.2260334 174.9969509 11.94439316 174.9624939 C10.38203555 174.95462465 8.81958746 174.95672774 7.257267 174.97006989 C-3.74167036 175.05527214 -12.92461427 173.54059098 -21.35246277 165.91540146 C-29.35302176 157.72022173 -30.30303516 149.67257586 -30.2600708 138.65870667 C-30.26693405 137.42353806 -30.2737973 136.18836945 -30.28086853 134.91577148 C-30.29597427 131.54779176 -30.29764714 128.18036832 -30.29192615 124.81239629 C-30.28882253 121.99197681 -30.29493971 119.17160674 -30.30096489 116.35119432 C-30.31498188 109.69323945 -30.31347245 103.03541297 -30.30206299 96.37745667 C-30.29058401 89.52792812 -30.30465985 82.67879124 -30.33145946 75.82931429 C-30.35366968 69.93009483 -30.36024193 64.03099783 -30.35438305 58.13173956 C-30.35102499 54.6164689 -30.35335123 51.10144923 -30.37063408 47.58621407 C-30.38908049 43.66360951 -30.37486141 39.74148077 -30.35772705 35.81886292 C-30.36739502 34.66689423 -30.37706299 33.51492554 -30.38702393 32.32804871 C-30.29654603 22.41166231 -27.60755006 15.25696474 -20.85601807 7.96705627 C-14.65304641 2.40618911 -8.21577466 0.07476852 0 0 Z M-21.38336182 14.91627502 C-26.00164615 21.99682767 -26.2935264 27.87531458 -26.2600708 36.17701721 C-26.26693405 37.36981293 -26.2737973 38.56260864 -26.28086853 39.79154968 C-26.29598806 43.04808179 -26.29764239 46.30425316 -26.29192615 49.56080532 C-26.28882368 52.28902961 -26.29493887 55.01720276 -26.30096489 57.74541974 C-26.31499049 64.18913396 -26.31346698 70.63271556 -26.30206299 77.07643127 C-26.29060015 83.69925766 -26.30463064 90.32167821 -26.33145946 96.94445109 C-26.35370125 102.65090285 -26.36023439 108.35722802 -26.35438305 114.06371999 C-26.35103041 117.46281861 -26.35331368 120.86165758 -26.37063408 124.2607193 C-26.38559112 128.05864172 -26.37482981 131.85568391 -26.35772705 135.65357971 C-26.36739502 136.76252594 -26.37706299 137.87147217 -26.38702393 139.01402283 C-26.3022254 148.05390128 -24.71353502 156.37833724 -18.48101807 163.23658752 C-15.5908346 166.0377369 -12.69406145 167.04429729 -8.85601807 168.17408752 C-8.85190918 167.45865784 -8.84780029 166.74322815 -8.84356689 166.00611877 C-8.8104355 162.72796627 -8.73976886 159.45162425 -8.66851807 156.17408752 C-8.66271729 155.04873596 -8.6569165 153.9233844 -8.65093994 152.76393127 C-8.46766649 145.79954023 -7.81156276 140.37514254 -2.85601807 135.17408752 C-1.94078369 134.72033752 -1.02554932 134.26658752 -0.08258057 133.79908752 C2.32255601 132.41557982 2.32255601 132.41557982 2.61761475 130.13111877 C2.8194655 127.46047803 2.8255469 124.85149613 2.76898193 122.17408752 C2.78831787 121.25885315 2.80765381 120.34361877 2.82757568 119.40065002 C2.80909477 116.87985389 2.72390495 114.62809893 2.14398193 112.17408752 C-0.18036413 110.10279029 -0.18036413 110.10279029 -2.85601807 109.17408752 C-4.93264166 105.51527453 -5.28956512 102.33613922 -4.85601807 98.17408752 C-3.13657041 94.39130267 -1.70126554 92.6817565 2.14398193 91.17408752 C6.55483617 90.94111987 10.12536937 91.38466279 13.64398193 94.11158752 C16.46414263 97.98930849 16.22675707 100.3370989 15.65960693 104.97877502 C14.95072558 107.99689111 13.62060675 109.37290584 11.14398193 111.17408752 C10.15398193 111.66908752 10.15398193 111.66908752 9.14398193 112.17408752 C9.14398193 117.45408752 9.14398193 122.73408752 9.14398193 128.17408752 C11.33911666 125.25073804 11.33911666 125.25073804 13.46820068 122.27955627 C19.97468734 113.12573121 27.90932725 106.43070229 39.14398193 104.17408752 C41.47991828 104.07622966 43.81845859 104.03589224 46.15643311 104.02882385 C46.85457123 104.02546524 47.55270935 104.02210663 48.27200317 104.01864624 C50.57700387 104.00915888 52.88193168 104.00719391 55.18695068 104.00611877 C56.79635141 104.00290348 58.40575185 103.9995392 60.01515198 103.99603271 C63.39021481 103.99004615 66.76525206 103.98819221 70.14031982 103.98878479 C74.44627959 103.98888612 78.75207336 103.97526244 83.05799389 103.95801258 C86.38418822 103.94684122 89.71034317 103.94486719 93.03655434 103.94539452 C94.62283205 103.94422104 96.209111 103.93983507 97.7953701 103.93206215 C111.90128388 103.86943903 124.79078953 104.77868441 135.51898193 115.04908752 C138.75363014 118.4932676 141.03535741 121.95683848 143.14398193 126.17408752 C143.47398193 126.17408752 143.80398193 126.17408752 144.14398193 126.17408752 C144.27887585 123.90487216 144.37592189 121.63338083 144.45648193 119.36158752 C144.51448975 118.09701721 144.57249756 116.8324469 144.63226318 115.52955627 C144.39056396 113.86859924 144.39056396 113.86859924 144.14398193 112.17408752 C141.78582279 110.30266175 141.78582279 110.30266175 139.14398193 109.17408752 C137.06735834 105.51527453 136.71043488 102.33613922 137.14398193 98.17408752 C138.86342959 94.39130267 140.29873446 92.6817565 144.14398193 91.17408752 C148.55483617 90.94111987 152.12536937 91.38466279 155.64398193 94.11158752 C158.46414263 97.98930849 158.22675707 100.3370989 157.65960693 104.97877502 C156.95072558 107.99689111 155.62060675 109.37290584 153.14398193 111.17408752 C152.15398193 111.66908752 152.15398193 111.66908752 151.14398193 112.17408752 C150.91069107 115.40202549 150.76930519 118.62779985 150.64398193 121.86158752 C150.57695068 122.77359924 150.50991943 123.68561096 150.44085693 124.6252594 C150.3615803 127.35039373 150.39221964 129.54914646 151.14398193 132.17408752 C153.03446642 133.88599028 154.92067307 134.90912391 157.18377686 136.07325745 C160.40244594 137.88082737 161.09003838 139.67673178 162.14398193 143.17408752 C162.61316115 147.29843147 162.74597986 151.40101553 162.83148193 155.54908752 C162.86564209 156.66670471 162.89980225 157.7843219 162.93499756 158.93580627 C163.01714266 161.68179975 163.08640322 164.42748735 163.14398193 167.17408752 C166.88154904 165.76722893 169.12557565 164.57874495 171.76898193 161.54908752 C172.33874756 160.9174469 172.90851318 160.28580627 173.49554443 159.63502502 C177.87548393 153.09625278 178.57845176 147.00708246 178.48455811 139.36158752 C178.48499619 138.41432297 178.48543427 137.46705841 178.48588562 136.49108887 C178.48380906 133.38520616 178.46053154 130.279875 178.43695068 127.17408752 C178.4313507 125.01076045 178.4270825 122.84742954 178.42408752 120.68409729 C178.41267047 115.00904206 178.38323025 109.33421966 178.34997559 103.65925598 C178.31920698 97.86084644 178.30556769 92.06239904 178.29046631 86.26393127 C178.25835758 74.90054812 178.20719923 63.53733723 178.14398193 52.17408752 C177.52466797 52.159505 176.905354 52.14492249 176.26727295 52.12989807 C173.4131042 52.05461335 170.56000444 51.95822439 167.70648193 51.86158752 C166.73259521 51.83902893 165.7587085 51.81647034 164.75531006 51.79322815 C156.80162381 51.50061762 149.20532517 50.32323731 142.76898193 45.29908752 C142.14249756 44.82729065 141.51601318 44.35549377 140.87054443 43.86940002 C139.14398193 42.17408752 139.14398193 42.17408752 138.21714783 39.60360718 C136.43110265 37.01303623 136.43110265 37.01303623 134.03676796 36.7195034 C131.09596848 36.55481596 128.19191687 36.55672762 125.24676514 36.60646057 C124.12466644 36.60573044 123.00256775 36.60500031 121.84646606 36.60424805 C118.12874407 36.60773808 114.41226695 36.64666893 110.69476318 36.68580627 C108.12072942 36.69512929 105.54668679 36.70224781 102.97264099 36.70724487 C96.88449945 36.7244003 90.79687348 36.76382627 84.70892638 36.81399232 C77.77797595 36.86986597 70.84700417 36.89736717 63.91588461 36.9224695 C49.65834276 36.9747423 35.40117827 37.06269682 21.14398193 37.17408752 C21.14398193 35.19408752 21.14398193 33.21408752 21.14398193 31.17408752 C57.77398193 31.17408752 94.40398193 31.17408752 132.14398193 31.17408752 C131.81398193 22.26408752 131.48398193 13.35408752 131.14398193 4.17408752 C113.45409104 4.06105197 95.7645102 3.96901744 78.07435799 3.91502666 C69.85980387 3.8892872 61.64549072 3.85421871 53.43109131 3.79689026 C46.26818641 3.7469242 39.10545609 3.71476558 31.94238174 3.70364505 C28.15240917 3.69714845 24.36293587 3.68197007 20.57312393 3.64543724 C16.99925055 3.6112681 13.42607773 3.60107599 9.8520565 3.60854912 C7.92874037 3.60653728 6.00549896 3.57975211 4.0823822 3.55198669 C-6.7891416 3.61604532 -14.28579328 6.58055572 -21.38336182 14.91627502 Z " fill="#070405" transform="translate(32.85601806640625,1.8259124755859375)"/>
<path d="M0 0 C0.71268036 -0.00817749 1.42536072 -0.01635498 2.15963745 -0.02478027 C4.52056046 -0.04960556 6.88142305 -0.06615074 9.24243164 -0.08056641 C10.45700137 -0.08855192 10.45700137 -0.08855192 11.69610786 -0.09669876 C15.98929013 -0.12342913 20.28244346 -0.14279676 24.57568359 -0.15722656 C28.11110601 -0.17051519 31.6459443 -0.19827274 35.18115234 -0.23925781 C39.46409376 -0.28890379 43.74650922 -0.31338742 48.02972603 -0.32045364 C49.65265202 -0.32711797 51.27556853 -0.34221242 52.89832878 -0.36634445 C65.59710823 -0.54427882 76.64751372 1.08684705 86.21508789 10.23583984 C93.08255697 17.91575504 96.30633977 25.04915814 96.16040039 35.43505859 C96.1575705 36.20343048 96.1547406 36.97180237 96.15182495 37.76345825 C96.140701 40.1984263 96.11561149 42.63301571 96.09008789 45.06787109 C96.080048 46.72671992 96.07092392 48.38557455 96.06274414 50.04443359 C96.04249544 54.09417318 96.00333335 58.14310228 95.96508789 62.19287109 C90.02508789 62.19287109 84.08508789 62.19287109 77.96508789 62.19287109 C77.93930664 60.16904297 77.91352539 58.14521484 77.88696289 56.06005859 C77.84521765 54.08411736 77.80333189 52.10817647 77.75756836 50.13232422 C77.72947166 48.76688945 77.70820112 47.40129546 77.6940918 46.03564453 C77.67250807 44.06433071 77.6237333 42.09337479 77.57446289 40.12255859 C77.54304199 38.34727783 77.54304199 38.34727783 77.51098633 36.53613281 C76.86550874 32.5830156 75.30064715 30.3974351 72.96508789 27.19287109 C72.96508789 26.53287109 72.96508789 25.87287109 72.96508789 25.19287109 C67.73785825 23.07372394 63.78679486 22.06041949 58.11035156 22.01586914 C57.41729416 22.00929794 56.72423676 22.00272675 56.01017761 21.99595642 C53.71780281 21.97625464 51.42549341 21.96456795 49.13305664 21.95458984 C48.34895227 21.95051432 47.56484791 21.94643879 46.7569828 21.94223976 C42.60687144 21.92139249 38.456793 21.90708489 34.30664062 21.89770508 C30.02597331 21.88664235 25.74582606 21.85224066 21.46534252 21.81253338 C18.16843211 21.78635684 14.87164546 21.77801236 11.57464027 21.7744236 C9.99701741 21.76956042 8.41939997 21.757954 6.84187889 21.7393856 C4.63017205 21.71497023 2.41980887 21.71596265 0.20800781 21.72290039 C-1.04869217 21.71703415 -2.30539215 21.71116791 -3.60017395 21.7051239 C-8.85007912 22.45063241 -11.90152097 24.90631899 -15.34741211 28.81787109 C-18.08849943 32.67569769 -18.20727762 34.99916653 -18.35131836 39.73193359 C-18.39321289 41.03388672 -18.43510742 42.33583984 -18.47827148 43.67724609 C-18.5180851 45.05745154 -18.55779733 46.43765992 -18.59741211 47.81787109 C-18.64060618 49.20590524 -18.68422076 50.59392637 -18.72827148 51.98193359 C-18.83463145 55.38545238 -18.93530129 58.7891481 -19.03491211 62.19287109 C-23.98491211 62.19287109 -28.93491211 62.19287109 -34.03491211 62.19287109 C-34.12727298 57.37214663 -34.20674093 52.55455038 -34.25463867 47.73364258 C-34.27462543 46.09746846 -34.30182454 44.46136458 -34.33666992 42.82543945 C-34.69500018 25.55708277 -34.69500018 25.55708277 -30.03491211 18.19287109 C-29.45741211 17.16162109 -28.87991211 16.13037109 -28.28491211 15.06787109 C-20.98744933 5.74333532 -11.90859561 0.11876556 0 0 Z " fill="#FDFDFD" transform="translate(79.034912109375,109.80712890625)"/>
<path d="M0 0 C0.99 0 1.98 0 3 0 C3.01458252 0.55349121 3.02916504 1.10698242 3.04418945 1.67724609 C3.15987952 21.50082941 3.15987952 21.50082941 13 38 C18.68083963 42.06153488 23.8298658 45.01702461 30.88671875 45.31640625 C31.82451172 45.35830078 32.76230469 45.40019531 33.72851562 45.44335938 C35.19321289 45.50233398 35.19321289 45.50233398 36.6875 45.5625 C38.16959961 45.62727539 38.16959961 45.62727539 39.68164062 45.69335938 C42.12095546 45.79941654 44.56037113 45.90147714 47 46 C47 46.66 47 47.32 47 48 C43.52099751 48.08825361 40.04228883 48.14080635 36.5625 48.1875 C35.58861328 48.21263672 34.61472656 48.23777344 33.61132812 48.26367188 C25.48842436 48.34517258 18.15083564 47.25287982 11.625 42.0625 C10.99851562 41.57910156 10.37203125 41.09570312 9.7265625 40.59765625 C7.85547697 38.86626715 6.40176116 37.12844103 5 35 C5 34.34 5 33.68 5 33 C-32.95 33 -70.9 33 -110 33 C-111 29 -111 29 -110 27 C-73.37 27 -36.74 27 1 27 C0.505 25.515 0.505 25.515 0 24 C-0.08239169 22.15389468 -0.10743359 20.30494836 -0.09765625 18.45703125 C-0.09282227 16.84731445 -0.09282227 16.84731445 -0.08789062 15.20507812 C-0.07532227 13.52575195 -0.07532227 13.52575195 -0.0625 11.8125 C-0.05798828 10.68134766 -0.05347656 9.55019531 -0.04882812 8.38476562 C-0.03703498 5.58979073 -0.0205765 2.7949218 0 0 Z " fill="#CBCABC" transform="translate(164,6)"/>
<path d="M0 0 C5.09047882 4.04924451 9.44205019 8.57747222 13.79492188 13.38842773 C19.3909414 19.52352127 25.29287861 25.3454101 31.20825195 31.17089844 C32.33493286 32.28513184 32.33493286 32.28513184 33.484375 33.421875 C34.16209961 34.08799805 34.83982422 34.75412109 35.53808594 35.44042969 C37 37 37 37 37 38 C25.8348726 38.58286628 16.75892561 39.03797354 7.94921875 31.16796875 C-0.17681214 22.63815992 -0.35141606 14.58175598 -0.10546875 3.4375 C-0.07066406 2.303125 -0.03585938 1.16875 0 0 Z " fill="#9FC653" transform="translate(171,10)"/>
<path d="M0 0 C38.28 0 76.56 0 116 0 C116 1.32 116 2.64 116 4 C77.72 4 39.44 4 0 4 C0 2.68 0 1.36 0 0 Z " fill="#252421" transform="translate(54,85)"/>
<path d="M0 0 C36.96 0 73.92 0 112 0 C112.495 1.98 112.495 1.98 113 4 C75.71 4 38.42 4 0 4 C0 2.68 0 1.36 0 0 Z " fill="#252421" transform="translate(54,34)"/>
<path d="M0 0 C3.83571467 0.04383674 6.87700536 0.18478444 10.25 2.1875 C12.54587634 5.63131451 12.36665285 7.19999099 11.71484375 11.19140625 C11.03713693 14.10155906 10.20430762 15.90747444 8.25 18.1875 C2.62142924 21.51869494 -2.31586978 21.53704027 -8.75 21.1875 C-7.04117879 0.05207972 -7.04117879 0.05207972 0 0 Z " fill="#040403" transform="translate(59.75,48.8125)"/>
<path d="M0 0 C0 11.22 0 22.44 0 34 C-3.63 34 -7.26 34 -11 34 C-11.10807762 29.79097704 -11.1873684 25.58473798 -11.25 21.375 C-11.28351562 20.18519531 -11.31703125 18.99539062 -11.3515625 17.76953125 C-11.47452923 6.76400894 -11.47452923 6.76400894 -7 2 C-4.32655486 0.21770324 -3.26229641 0 0 0 Z " fill="#00EEFB" transform="translate(40,138)"/>
<path d="M0 0 C8.30644346 2.37326956 8.30644346 2.37326956 10.33349609 5.93115234 C11.87679352 10.72159279 11.43928897 15.83955469 11.3125 20.8125 C11.30283203 21.96943359 11.29316406 23.12636719 11.28320312 24.31835938 C11.16822452 32.83177548 11.16822452 32.83177548 10 34 C6.7 34 3.4 34 0 34 C0 22.78 0 11.56 0 0 Z " fill="#00EEFB" transform="translate(180,138)"/>
<path d="M0 0 C1.875 1 1.875 1 3 3 C3.75757576 9.81818182 3.75757576 9.81818182 1.4375 13.4375 C-1.76815927 15.49240979 -4.21174497 15.86470518 -8 16 C-10.79571502 15.04357118 -11.67649489 14.64701022 -13 12 C-13.42576871 8.16808162 -13.30321315 6.47050317 -11.1875 3.1875 C-7.77031349 -0.22968651 -4.67547835 -0.3896232 0 0 Z " fill="#0E0E0D" transform="translate(152,55)"/>
<path d="M0 0 C1.32 0 2.64 0 4 0 C4 0.66 4 1.32 4 2 C4.721875 1.649375 5.44375 1.29875 6.1875 0.9375 C9.3122705 -0.10409017 10.88161996 0.10903428 14 1 C14.22577402 6.4185766 13.46670113 10.77487721 12 16 C10.68 15.67 9.36 15.34 8 15 C8.33 11.37 8.66 7.74 9 4 C7.35 4 5.7 4 4 4 C3.67 7.63 3.34 11.26 3 15 C1.35 15 -0.3 15 -2 15 C-1.47462276 9.9697924 -0.89405214 4.98114761 0 0 Z " fill="#060605" transform="translate(159,55)"/>
<path d="M0 0 C0.66 1.32 1.32 2.64 2 4 C-0.97 3.67 -3.94 3.34 -7 3 C-6.67 3.66 -6.34 4.32 -6 5 C-3.6859378 5.73075648 -1.35171131 6.40138258 1 7 C2.31286211 11.41599073 2.31286211 11.41599073 1.0625 13.75 C-2.06489954 15.64539366 -5.37204874 15.97074233 -9 16 C-9.99 15.67 -10.98 15.34 -12 15 C-12 14.01 -12 13.02 -12 12 C-9.03 12.33 -6.06 12.66 -3 13 C-3.33 12.34 -3.66 11.68 -4 11 C-6.3140622 10.26924352 -8.64828869 9.59861742 -11 9 C-11 6.69 -11 4.38 -11 2 C-7.36576791 -0.32590854 -4.22911669 -0.16265833 0 0 Z " fill="#0C0C0B" transform="translate(126,55)"/>
<path d="M0 0 C0.66 1.32 1.32 2.64 2 4 C-0.97 3.67 -3.94 3.34 -7 3 C-6.67 3.66 -6.34 4.32 -6 5 C-3.6859378 5.73075648 -1.35171131 6.40138258 1 7 C2.31286211 11.41599073 2.31286211 11.41599073 1.0625 13.75 C-2.06489954 15.64539366 -5.37204874 15.97074233 -9 16 C-9.99 15.67 -10.98 15.34 -12 15 C-12 14.01 -12 13.02 -12 12 C-9.03 12.33 -6.06 12.66 -3 13 C-3.33 12.34 -3.66 11.68 -4 11 C-6.3140622 10.26924352 -8.64828869 9.59861742 -11 9 C-11 6.69 -11 4.38 -11 2 C-7.36576791 -0.32590854 -4.22911669 -0.16265833 0 0 Z " fill="#0C0C0B" transform="translate(110,55)"/>
<path d="M0 0 C3.4375 0.8125 3.4375 0.8125 5.4375 3.8125 C5.25 7.375 5.25 7.375 4.4375 10.8125 C1.4375 12.8125 1.4375 12.8125 -2.125 12.625 C-5.5625 11.8125 -5.5625 11.8125 -7.5625 8.8125 C-7.375 5.25 -7.375 5.25 -6.5625 1.8125 C-3.5625 -0.1875 -3.5625 -0.1875 0 0 Z " fill="#00E3F0" transform="translate(181.5625,97.1875)"/>
<path d="M0 0 C3.4375 0.8125 3.4375 0.8125 5.4375 3.8125 C5.25 7.375 5.25 7.375 4.4375 10.8125 C1.4375 12.8125 1.4375 12.8125 -2.125 12.625 C-5.5625 11.8125 -5.5625 11.8125 -7.5625 8.8125 C-7.375 5.25 -7.375 5.25 -6.5625 1.8125 C-3.5625 -0.1875 -3.5625 -0.1875 0 0 Z " fill="#00E3F0" transform="translate(39.5625,97.1875)"/>
<path d="M0 0 C0.721875 0.185625 1.44375 0.37125 2.1875 0.5625 C4.98785845 1.16752429 4.98785845 1.16752429 7.6875 0.4375 C8.8321875 0.2209375 8.8321875 0.2209375 10 0 C10.66 0.66 11.32 1.32 12 2 C11.625 5.125 11.625 5.125 11 8 C9.68 8 8.36 8 7 8 C7 6.68 7 5.36 7 4 C6.01 4 5.02 4 4 4 C3.67 7.63 3.34 11.26 3 15 C1.35 14.67 -0.3 14.34 -2 14 C-1.85923685 12.0412957 -1.7122324 10.08303907 -1.5625 8.125 C-1.48128906 7.03445312 -1.40007812 5.94390625 -1.31640625 4.8203125 C-1 2 -1 2 0 0 Z " fill="#0A0A09" transform="translate(76,55)"/>
<path d="M0 0 C1.8125 1.1875 1.8125 1.1875 3 3 C3.4334014 5.88934264 3.42525784 7.35092224 1.8125 9.8125 C-0.64907776 11.42525784 -2.11065736 11.4334014 -5 11 C-6.8125 9.8125 -6.8125 9.8125 -8 8 C-8.4334014 5.11065736 -8.42525784 3.64907776 -6.8125 1.1875 C-4.35092224 -0.42525784 -2.88934264 -0.4334014 0 0 Z " fill="#00E5F2" transform="translate(135,149)"/>
<path d="M0 0 C1.8125 1.1875 1.8125 1.1875 3 3 C3.4334014 5.88934264 3.42525784 7.35092224 1.8125 9.8125 C-0.64907776 11.42525784 -2.11065736 11.4334014 -5 11 C-6.8125 9.8125 -6.8125 9.8125 -8 8 C-8.4334014 5.11065736 -8.42525784 3.64907776 -6.8125 1.1875 C-4.35092224 -0.42525784 -2.88934264 -0.4334014 0 0 Z " fill="#00E5F2" transform="translate(89,149)"/>
<path d="M0 0 C2.31 0 4.62 0 7 0 C6.85892253 1.45880109 6.71197585 2.91703551 6.5625 4.375 C6.48128906 5.18710937 6.40007812 5.99921875 6.31640625 6.8359375 C6 9 6 9 5 11 C3.02 11 1.04 11 -1 11 C-1.14285714 3.57142857 -1.14285714 3.57142857 0 0 Z " fill="#E5E3D1" transform="translate(59,54)"/>
<path d="M0 0 C-0.14183696 1.75032844 -0.28863429 3.50025534 -0.4375 5.25 C-0.51871094 6.22453125 -0.59992188 7.1990625 -0.68359375 8.203125 C-0.95074584 10.56461753 -1.35371968 12.71901065 -2 15 C-3.65 15 -5.3 15 -7 15 C-6.67793494 12.33146093 -6.34457004 9.6656321 -6 7 C-5.855625 5.865625 -5.71125 4.73125 -5.5625 3.5625 C-5.376875 2.716875 -5.19125 1.87125 -5 1 C-3 0 -3 0 0 0 Z " fill="#040404" transform="translate(137,55)"/>
<path d="M0 0 C-0.66 4.95 -1.32 9.9 -2 15 C-3.98 15 -5.96 15 -8 15 C-7.5520266 12.68547078 -7.09133539 10.37339961 -6.625 8.0625 C-6.36976562 6.77472656 -6.11453125 5.48695312 -5.8515625 4.16015625 C-5.57054688 3.11730469 -5.28953125 2.07445312 -5 1 C-3 0 -3 0 0 0 Z " fill="#040404" transform="translate(96,55)"/>
<path d="M0 0 C2.1875 0.3125 2.1875 0.3125 4 1 C5.125 5.75 5.125 5.75 4 8 C2.68 8 1.36 8 0 8 C0 6.68 0 5.36 0 4 C-0.99 3.67 -1.98 3.34 -3 3 C-1.75 1.4375 -1.75 1.4375 0 0 Z " fill="#000000" transform="translate(83,55)"/>
<path d="M0 0 C1.32 0 2.64 0 4 0 C3.67 2.64 3.34 5.28 3 8 C1.35 8 -0.3 8 -2 8 C-1.125 1.125 -1.125 1.125 0 0 Z " fill="#DEDBCA" transform="translate(146,59)"/>
<path d="M0 0 C2.125 0.375 2.125 0.375 4 1 C3.67 2.32 3.34 3.64 3 5 C1.68 5.33 0.36 5.66 -1 6 C-1.625 4.125 -1.625 4.125 -2 2 C-1.34 1.34 -0.68 0.68 0 0 Z " fill="#1A1917" transform="translate(135,48)"/>
<path d="M0 0 C0.99 0.33 1.98 0.66 3 1 C3 2.32 3 3.64 3 5 C1.68 5.33 0.36 5.66 -1 6 C-1.625 4.125 -1.625 4.125 -2 2 C-1.34 1.34 -0.68 0.68 0 0 Z " fill="#030303" transform="translate(94,48)"/>
<path d="M0 0 C2.97 0.33 5.94 0.66 9 1 C4.82091936 3.08954032 4.19589427 3.16552619 0 2 C0 1.34 0 0.68 0 0 Z " fill="#CBC8B8" transform="translate(119,58)"/>
<path d="M0 0 C2.97 0.33 5.94 0.66 9 1 C4.82091936 3.08954032 4.19589427 3.16552619 0 2 C0 1.34 0 0.68 0 0 Z " fill="#CBC8B8" transform="translate(103,58)"/>
</svg>
