<svg t="1722926893609" class="icon" viewBox="0 0 1024 1024" version="1.1" xmlns="http://www.w3.org/2000/svg" p-id="4285"
     width="200" height="200">
  <path
    d="M733.00737 406.168603c-53.899947-237.269768-181.031823-315.236692-194.69881-345.069663-15.010985-21.025979-31.265969-61.09994-31.265969-61.09994-0.1 0.799999-0.16 1.311999-0.224 2.079998v0.543999h-0.032a15.370985 15.370985 0 0 0-0.16 1.663999v0.639999h-0.1c0 0.416-0.1 0.767999-0.1 1.119999v1.119999h-0.128a5.306995 5.306995 0 0 1-0.128 1.055999v0.899999h-0.099999a2.755997 2.755997 0 0 1-0.1 0.899999v0.863999h-0.1a10.30499 10.30499 0 0 1-0.1 1.375999v0.1c-0.128 0.735999-0.256 1.439999-0.384 2.143998v0.351999h-0.1a2.999997 2.999997 0 0 0-0.128 0.512v0.727999h-0.127999v0.927999h-0.224v0.772h-0.224v0.899999h-0.16v0.799999h-0.16v0.735999h-0.255999v0.608h-0.16v0.767999h-0.16v0.607999h-0.224v0.544h-0.128v0.639999h-0.16c-0.032 0.032-0.032 0.128-0.032 0.16v0.416h-0.127999a0.705999 0.705999 0 0 0-0.032 0.255999v0.256h-0.1a3.566997 3.566997 0 0 0-0.1 0.416c-0.128 0.288-0.288 0.607999-0.416 0.899999v0.1c-0.1 0.1-0.16 0.224-0.224 0.287999v0.352h-0.159999v0.352h-0.224v0.351999h-0.128v0.416h-0.256v0.607999h-0.16v0.16h-0.16v0.352h-0.159999v0.479999h-0.16v0.352h-0.256v0.48h-0.16v0.351999h-0.224v0.352h-0.127999v0.416h-0.224v0.351999h-0.16v0.256h-0.16v0.352h-0.256v0.383999h-0.16v0.256h-0.223999v0.352h-0.16v0.479999h-0.224v0.16h-0.128v0.352h-0.228v0.159999h-0.159999v0.416h-0.16v0.16h-0.16v0.352h-0.22v0.247999h-0.128l-0.1 0.16v0.16h-0.1c-0.032 0.1-0.1 0.1-0.1 0.16v0.032h-0.031999a0.618999 0.618999 0 0 1-0.16 0.288v0.127999h-0.032a5.335995 5.335995 0 0 0-0.512 0.768v0.032a2.459998 2.459998 0 0 0-0.383999 0.415999v0.1h-0.032c-0.032 0.032-0.128 0.1-0.128 0.128v0.128h-0.092l-0.128 0.128v0.032h-0.032c0 0.032-0.1 0.1-0.128 0.16v0.159999h-0.128l-0.1 0.1v0.1h-0.1c0 0.1-0.1 0.1-0.099999 0.128v0.128h-0.16a0.172 0.172 0 0 1-0.1 0.128v0.256h-0.128v0.159999h-0.16v0.256h-0.16v0.352h-0.224v-0.352h-0.223999v0.16h-0.16v0.256h-0.224v0.351999h-0.224v0.16h-0.16v0.256h-0.159999v0.16h-0.16v0.352h-0.24v0.159999h-0.16v0.256h-0.224v0.16h-0.16v0.224h-0.223999v0.415999h-0.1v0.16h-0.256v0.224h-0.16v0.1h-0.16v0.16h-0.223999v0.415999h-0.16v0.16h-0.224v0.16h-0.16v0.256h-0.224v0.16h-0.223999v0.159999h-0.16v0.16h-0.16v0.416h-0.16v0.224h-0.256v0.16h-0.16v0.159999h-0.223999v0.256h-0.16v0.16h-0.224v0.288h-0.16v0.16h-0.256v0.255999h-0.099999v0.16h-0.16v0.16h-0.224v0.16h-0.16v0.256h-0.224v0.159999h-0.128a0.158 0.158 0 0 0-0.032 0.1v0.1h-0.099999l-0.16 0.16a0.875999 0.875999 0 0 1-0.16 0.128v0.256h-0.16v0.223999h-0.16v0.16h-0.16v0.132h-0.128l-0.127999 0.128v0.128h-0.1l-0.1 0.1v0.128h-0.1a3.845996 3.845996 0 0 1-0.608 0.671999c-0.1 0.1-0.352 0.288-0.511999 0.416a15.758985 15.758985 0 0 0-1.663998 1.375998 7.833992 7.833992 0 0 0-0.928 0.736v0.032h-0.031999a236.379769 236.379769 0 0 1-2.079998 1.663998v0.032c-1.023999 0.863999-2.015998 1.663998-3.168997 2.656997v-0.032h-0.1c-2.432998 2.015998-4.992995 4.256996-7.937993 6.784994v0.032h-0.005c-7.199993 6.304994-15.778985 14.434986-25.381975 24.228976l-0.799999 0.799999C384.034711 148.928855 292.5588 274.043732 282.924809 476.263535a442.138568 442.138568 0 0 0 0.256 48.810952v0.384c4.640995 79.664922 29.669971 147.711856 60.940941 202.955802v0.032a530.019482 530.019482 0 0 0 39.528961 59.951941v0.032c47.017954 62.093939 95.028907 98.869903 107.286895 107.799895 18.819982 43.657957 17.059983 118.585884 17.059984 118.585884l27.493973 9.181991s-5.599995-72.591929 2.272998-107.639895c2.432998-10.977989 8.193992-20.32398 14.882985-28.261972a358.29265 358.29265 0 0 0 34.022967-27.525973c0.767999-0.799999 1.183999-1.535999 1.887998-2.299998 64.909937-60.524941 186.152818-209.549795 144.575859-452.322558z"
    fill="#47A248" p-id="4286"></path>
</svg>
