<svg t="1722927326222" class="icon" viewBox="0 0 1024 1024" version="1.1" xmlns="http://www.w3.org/2000/svg" p-id="8641"
     width="200" height="200">
  <path
    d="M610.987 203.093C597.333 168.96 547.84 54.613 510.293 40.96c-5.12-1.707-10.24-1.707-15.36-1.707-52.906 0-172.373 54.614-226.986 90.454-3.414 1.706-5.12 6.826-5.12 11.946 1.706 5.12 5.12 6.827 10.24 6.827 42.666 1.707 189.44 8.533 327.68 66.56h3.413c3.413 0 5.12-1.707 6.827-3.413v-8.534zM503.467 56.32c10.24 3.413 25.6 20.48 39.253 46.08L385.707 85.333c42.666-17.066 83.626-30.72 107.52-30.72 5.12 0 8.533 1.707 10.24 1.707z m15.36 59.733c-35.84 13.654-66.56 27.307-80.214 32.427-11.946-20.48-27.306-35.84-42.666-46.08l122.88 13.653z m-163.84-17.066c8.533 3.413 40.96 15.36 64.853 47.786-54.613-10.24-100.693-13.653-129.707-15.36 18.774-8.533 40.96-20.48 64.854-32.426z m107.52 56.32c20.48-10.24 56.32-23.894 92.16-35.84 11.946 22.186 23.893 47.786 35.84 73.386-44.374-15.36-88.747-29.013-128-37.546z"
    fill="#5182E4" p-id="8642"></path>
  <path
    d="M665.6 418.133l-3.413-15.36-13.654 8.534c-1.706 1.706-167.253 110.933-389.12 232.106l-1.706 1.707-1.707 1.707c-23.893 27.306-139.947 165.546-119.467 218.453 20.48 51.2 192.854 121.173 334.507 121.173 42.667 0 81.92-6.826 114.347-18.773 17.066-6.827 32.426-20.48 42.666-37.547 27.307-56.32 88.747-213.333 37.547-512z m-18.773 20.48c8.533 49.494 13.653 93.867 15.36 136.534-37.547 17.066-73.387 32.426-107.52 46.08 20.48-59.734 37.546-114.347 47.786-153.6 20.48-13.654 34.134-22.187 44.374-29.014zM578.56 481.28c-11.947 40.96-27.307 92.16-47.787 148.48-22.186-22.187-44.373-47.787-64.853-80.213 44.373-25.6 81.92-49.494 112.64-68.267zM474.453 822.613c3.414 1.707 8.534 3.414 11.947 5.12 46.08 18.774 92.16 27.307 126.293 32.427-61.44 32.427-145.066 59.733-208.213 78.507 25.6-32.427 47.787-73.387 69.973-116.054z m-10.24-25.6C419.84 774.827 384 747.52 354.987 715.093c46.08-15.36 100.693-34.133 167.253-61.44-15.36 47.787-35.84 97.28-58.027 143.36z m75.094-133.12c18.773 15.36 35.84 25.6 51.2 35.84 18.773 10.24 35.84 18.774 51.2 23.894C583.68 750.933 532.48 773.12 486.4 791.893c20.48-40.96 37.547-85.333 52.907-128zM450.56 559.787c18.773 32.426 39.253 58.026 61.44 78.506-64.853 25.6-117.76 46.08-162.133 59.734 22.186-35.84 46.08-75.094 73.386-122.88 8.534-5.12 18.774-10.24 27.307-15.36z m-59.733 34.133c-20.48 34.133-39.254 64.853-56.32 92.16-8.534-15.36-17.067-30.72-23.894-46.08 27.307-15.36 54.614-30.72 80.214-46.08zM271.36 660.48c8.533-3.413 15.36-8.533 22.187-11.947 8.533 18.774 17.066 37.547 29.013 54.614 0 1.706-1.707 1.706-1.707 3.413-46.08 13.653-80.213 22.187-105.813 25.6 18.773-25.6 39.253-49.493 56.32-71.68z m-85.333 221.867c-15.36-10.24-25.6-20.48-29.014-27.307-6.826-17.067 13.654-58.027 44.374-102.4 23.893-3.413 58.026-8.533 104.106-22.187-58.026 88.747-97.28 131.414-119.466 151.894z m148.48-160.427c1.706 0 3.413 0 3.413-1.707 29.013 35.84 64.853 64.854 109.227 87.04-117.76 47.787-192.854 68.267-237.227 78.507 25.6-25.6 66.56-75.093 124.587-163.84zM358.4 950.613c-52.907-11.946-100.693-29.013-136.533-47.786 46.08-10.24 119.466-32.427 228.693-75.094-23.893 46.08-49.493 88.747-76.8 117.76l-15.36 5.12z m249.173-32.426c-6.826 13.653-17.066 22.186-30.72 27.306-30.72 11.947-66.56 17.067-105.813 17.067-23.893 0-46.08-1.707-69.973-5.12 66.56-18.773 160.426-49.493 226.986-87.04-6.826 22.187-13.653 37.547-20.48 47.787z m30.72-75.094c-34.133-3.413-88.746-11.946-143.36-34.133 47.787-20.48 102.4-44.373 165.547-73.387-6.827 42.667-13.653 78.507-22.187 107.52z m22.187-134.826c-30.72-10.24-73.387-29.014-114.347-63.147 35.84-15.36 73.387-30.72 116.054-49.493 1.706 40.96 1.706 78.506-1.707 112.64z m-51.2-366.934c-35.84-23.893-73.387-37.546-107.52-46.08-49.493 34.134-100.693 80.214-141.653 146.774-8.534 20.48-18.774 44.373-29.014 66.56 61.44-46.08 160.427-114.347 278.187-167.254z m18.773-126.293c-56.32-17.067-112.64-30.72-163.84-40.96-64.853 25.6-93.866 69.973-105.813 97.28 15.36-1.707 71.68-10.24 139.947 5.12 49.493-32.427 95.573-51.2 129.706-61.44z m-250.88 163.84c0 1.707 0 5.12-1.706 8.533 30.72-39.253 66.56-71.68 100.693-97.28-52.907-8.533-97.28-5.12-112.64-1.706 11.947 29.013 17.067 59.733 13.653 90.453z m424.96-100.693c-44.373-20.48-93.866-37.547-141.653-52.907-27.307 6.827-80.213 23.893-134.827 58.027 34.134 10.24 71.68 25.6 105.814 51.2 52.906-23.894 110.933-44.374 170.666-56.32z m85.334 42.666c-17.067-10.24-35.84-20.48-56.32-30.72-63.147 11.947-126.294 32.427-184.32 56.32 17.066 15.36 34.133 32.427 51.2 52.907 90.453-37.547 162.133-59.733 187.733-68.267 3.413-1.706 5.12-6.826 1.707-10.24z m-539.307-71.68c13.653-25.6 39.253-58.026 85.333-81.92-71.68-13.653-131.413-23.893-160.426-27.306-5.12 0-8.534 5.12-3.414 8.533 29.014 25.6 58.027 59.733 78.507 100.693z"
    fill="#5182E4" p-id="8643"></path>
  <path
    d="M628.053 354.987C481.28 419.84 363.52 506.88 310.613 549.547c-20.48 37.546-42.666 71.68-58.026 95.573-3.414 5.12 3.413 10.24 8.533 6.827 126.293-107.52 290.133-191.147 419.84-245.76-17.067-20.48-35.84-37.547-52.907-51.2z"
    fill="#5182E4" p-id="8644"></path>
</svg>
