<svg xmlns="http://www.w3.org/2000/svg"  viewBox="0 0 50 50" width="50px" height="50px"><path d="M 5.1308594 8.0273438 C 4.0740398 7.9629954 3 8.773714 3 9.9414062 L 3 15.544922 L 3 35.275391 C 3 37.899239 5.1735938 40.033203 7.8105469 40.033203 L 40.189453 40.033203 C 42.826723 40.033203 45 37.898503 45 35.275391 L 45 9.9941406 C 45 8.4210183 43.051515 7.504901 41.826172 8.4824219 L 36 13.125 L 36 13.121094 L 25.732422 21.306641 L 25.71875 21.314453 C 24.682773 22.130982 23.210569 22.125791 22.181641 21.298828 L 6.1523438 8.4101562 L 6.140625 8.4023438 C 5.8323754 8.1674634 5.4831326 8.0487931 5.1308594 8.0273438 z M 5 10.050781 L 20.927734 22.857422 C 21.456264 23.282215 22.057937 23.564 22.683594 23.734375 L 21.015625 25.064453 C 19.987625 25.884453 18.49675 25.881594 17.46875 25.058594 L 5 15.064453 L 5 10.050781 z M 43 10.103516 L 43 35.275391 C 43 36.802278 41.760183 38.033203 40.189453 38.033203 L 36 38.033203 L 36 15.681641 L 43 10.103516 z"/></svg>