<?xml version="1.0" encoding="UTF-8"?>
<!DOCTYPE svg PUBLIC "-//W3C//DTD SVG 1.1//EN" "http://www.w3.org/Graphics/SVG/1.1/DTD/svg11.dtd">
<svg xmlns="http://www.w3.org/2000/svg" version="1.1" width="256px" height="256px" style="shape-rendering:geometricPrecision; text-rendering:geometricPrecision; image-rendering:optimizeQuality; fill-rule:evenodd; clip-rule:evenodd" xmlns:xlink="http://www.w3.org/1999/xlink">
<g><path style="opacity:0.981" fill="#61a83a" d="M 112.5,-0.5 C 122.833,-0.5 133.167,-0.5 143.5,-0.5C 197.548,8.7041 233.382,39.3708 251,91.5C 252.715,98.2585 254.215,104.925 255.5,111.5C 255.5,122.167 255.5,132.833 255.5,143.5C 246.296,197.548 215.629,233.382 163.5,251C 156.741,252.715 150.075,254.215 143.5,255.5C 132.833,255.5 122.167,255.5 111.5,255.5C 57.4517,246.296 21.6184,215.629 4,163.5C 2.28494,156.741 0.784944,150.075 -0.5,143.5C -0.5,132.833 -0.5,122.167 -0.5,111.5C 8.7041,57.4517 39.3708,21.6184 91.5,4C 98.5897,2.26914 105.59,0.769143 112.5,-0.5 Z"/></g>
<g><path style="opacity:1" fill="#fefefe" d="M 112.5,11.5 C 170.603,8.44865 211.77,33.1153 236,85.5C 251.047,130.287 243.38,170.62 213,206.5C 175.8,242.589 132.633,252.089 83.5,235C 32.5932,210.717 8.75989,170.217 12,113.5C 22.5561,56.7779 56.0561,22.7779 112.5,11.5 Z"/></g>
<g><path style="opacity:1" fill="#a97c51" d="M 211.5,72.5 C 211.665,75.8499 211.498,79.1832 211,82.5C 208.872,85.6301 206.372,88.4634 203.5,91C 185.292,102.272 166.625,112.772 147.5,122.5C 147.167,122.5 146.833,122.5 146.5,122.5C 143.415,118.754 140.749,114.754 138.5,110.5C 155.338,97.1661 172.338,83.9994 189.5,71C 195.892,67.3282 202.559,66.6615 209.5,69C 210.823,69.8159 211.489,70.9826 211.5,72.5 Z"/></g>
<g><path style="opacity:1" fill="#f5f0eb" d="M 195.5,74.5 C 198.91,74.3838 200.244,76.0504 199.5,79.5C 197.833,79.5 196.167,79.5 194.5,79.5C 194.366,77.7085 194.699,76.0418 195.5,74.5 Z"/></g>
<g><path style="opacity:1" fill="#7d5431" d="M 211.5,72.5 C 212.222,72.9175 212.722,73.5842 213,74.5C 213.667,77.8333 213.667,81.1667 213,84.5C 210.872,87.6301 208.372,90.4634 205.5,93C 187.089,104.539 168.089,115.039 148.5,124.5C 147.662,124.158 147.328,123.492 147.5,122.5C 166.625,112.772 185.292,102.272 203.5,91C 206.372,88.4634 208.872,85.6301 211,82.5C 211.498,79.1832 211.665,75.8499 211.5,72.5 Z"/></g>
<g><path style="opacity:1" fill="#f5efea" d="M 175.5,88.5 C 176.873,88.3433 178.207,88.51 179.5,89C 180.451,89.7175 180.617,90.5509 180,91.5C 175.652,94.5577 174.152,93.5577 175.5,88.5 Z"/></g>
<g><path style="opacity:1" fill="#fbf9f7" d="M 156.5,101.5 C 160.161,101.35 161.161,102.85 159.5,106C 155.707,106.487 154.707,104.987 156.5,101.5 Z"/></g>
<g><path style="opacity:1" fill="#d0d2d3" d="M 138.5,110.5 C 140.749,114.754 143.415,118.754 146.5,122.5C 143.625,132.917 139.125,142.584 133,151.5C 123.697,162.637 113.863,173.304 103.5,183.5C 98.2671,188.462 92.6005,192.962 86.5,197C 85.365,197.749 84.365,197.583 83.5,196.5C 70.6698,178.176 58.3365,159.51 46.5,140.5C 58.4039,132.217 71.4039,126.05 85.5,122C 102.948,116.945 120.614,113.111 138.5,110.5 Z"/></g>
<g><path style="opacity:1" fill="#646567" d="M 146.5,122.5 C 146.833,122.5 147.167,122.5 147.5,122.5C 147.328,123.492 147.662,124.158 148.5,124.5C 145.767,136.062 140.6,146.395 133,155.5C 124.237,166.1 114.404,175.433 103.5,183.5C 113.863,173.304 123.697,162.637 133,151.5C 139.125,142.584 143.625,132.917 146.5,122.5 Z"/></g>
</svg>
