<?xml version="1.0" encoding="UTF-8"?>
<svg version="1.1" xmlns="http://www.w3.org/2000/svg" width="134" height="154">
<path d="M0 0 C44.22 0 88.44 0 134 0 C134 50.82 134 101.64 134 154 C89.78 154 45.56 154 0 154 C0 103.18 0 52.36 0 0 Z " fill="#FDFEFC" transform="translate(0,0)"/>
<path d="M0 0 C2.47676311 1.93308341 3.61720953 3.23441906 5 6 C5.15411106 8.0307477 5.24982453 10.06606421 5.31640625 12.1015625 C5.35830078 13.31328125 5.40019531 14.525 5.44335938 15.7734375 C5.48267578 17.04445313 5.52199219 18.31546875 5.5625 19.625 C5.60568359 20.90375 5.64886719 22.1825 5.69335938 23.5 C5.79969886 26.66655348 5.90172833 29.83318753 6 33 C6.268125 32.360625 6.53625 31.72125 6.8125 31.0625 C8 29 8 29 11 28 C10.41321669 31.52069985 9.64350079 33.71299843 8 37 C12.455 36.505 12.455 36.505 17 36 C16.34 37.32 15.68 38.64 15 40 C12.8359375 40.609375 12.8359375 40.609375 10.375 40.75 C9.14910156 40.83507812 9.14910156 40.83507812 7.8984375 40.921875 C6.95871094 40.96054688 6.95871094 40.96054688 6 41 C6.33 41.66 6.66 42.32 7 43 C7.04022391 45.3329866 7.04320247 47.66706666 7 50 C9.21039917 49.57305989 11.41825861 49.13296022 13.625 48.6875 C14.85476562 48.44386719 16.08453125 48.20023438 17.3515625 47.94921875 C25.63306143 45.79461035 30.75568452 41.42623188 35.109375 34.14453125 C35.79231579 32.78831392 36.40606693 31.39748957 37 30 C38.485 30.495 38.485 30.495 40 31 C39.65244638 37.95107243 35.65848578 42.57992327 30.69140625 47.1015625 C23.90779244 51.88652087 15.18805864 53.64220068 7 53 C6.67 54.32 6.34 55.64 6 57 C7.299375 57.061875 8.59875 57.12375 9.9375 57.1875 C20.17343604 58.40112112 28.27092008 65.57914551 35 73 C35 73.99 35 74.98 35 76 C31.9255935 74.59691515 29.53308915 72.90409642 26.9375 70.75 C17.85670142 63.51278275 17.85670142 63.51278275 6.9375 60.5 C3.88644627 60.72793454 3.88644627 60.72793454 2 63 C3.97867082 65.31292592 5.95791206 67.62535926 7.9375 69.9375 C8.50146484 70.59685547 9.06542969 71.25621094 9.64648438 71.93554688 C10.18466797 72.56396484 10.72285156 73.19238281 11.27734375 73.83984375 C12.02359009 74.71177368 12.02359009 74.71177368 12.78491211 75.60131836 C13.4986683 76.42291957 14.23042985 77.23042985 15 78 C15.07585846 87.51265138 12.89524934 96.01799392 10 105 C8.68 105 7.36 105 6 105 C6.46253728 100.76007497 7.0347505 96.702654 8.0625 92.5625 C8.38587279 91.04394137 8.69853395 89.52305893 9 88 C9.15855469 87.30261719 9.31710938 86.60523437 9.48046875 85.88671875 C10.13320459 80.71213175 8.47389179 77.82732488 5.46777344 73.78613281 C0.48314813 66.90907589 0.48314813 66.90907589 -7.06860352 63.94604492 C-10.99739821 63.58254427 -14.28834265 63.50636382 -18 65 C-23.7134769 69.7673043 -29.2449612 77.05999936 -32 84 C-31.54025011 89.42087836 -28.48645664 92.59411881 -25.15039062 96.71484375 C-22 100.70972111 -22 100.70972111 -22 104 C-27.40982841 103.18140754 -29.77105061 99.06608441 -33 95 C-33.45375 94.443125 -33.9075 93.88625 -34.375 93.3125 C-36.02109303 91.1177093 -37.02885749 89.61710641 -36.8984375 86.828125 C-35.61190787 82.77835346 -33.4233519 79.48920245 -31.125 75.9375 C-30.67769531 75.23044922 -30.23039062 74.52339844 -29.76953125 73.79492188 C-27.62947785 70.43333357 -25.46189618 67.13851003 -23 64 C-27.86443349 59.46887029 -31.25721491 59.34598789 -37.69921875 59.54296875 C-43.71947336 60.37654246 -47.72721129 63.25170099 -52.4375 66.875 C-54.53478633 69.72730941 -55.21052438 72.57893898 -56 76 C-56.99 76 -57.98 76 -59 76 C-58.62733514 70.03736218 -57.12430947 65.45089507 -53 61 C-47.11319906 57.14214502 -41.30017833 54.83382091 -34.25 54.9375 C-33.45078125 54.94652344 -32.6515625 54.95554688 -31.828125 54.96484375 C-31.22484375 54.97644531 -30.6215625 54.98804688 -30 55 C-30 54.01 -30 53.02 -30 52 C-31.60875 52.0928125 -31.60875 52.0928125 -33.25 52.1875 C-41.03347625 52.15989902 -49.79248884 50.26692822 -56.30859375 45.859375 C-60.4433592 41.31399773 -63 34.114022 -63 28 C-61.1875 28.125 -61.1875 28.125 -59 29 C-57.41517525 31.59911259 -56.24095957 34.08365009 -55.46484375 37.03515625 C-54.59377009 40.12141061 -53.87821225 42.31358123 -51.30078125 44.328125 C-44.66763663 47.61404507 -37.27287377 48.21374338 -30 49 C-30.020625 48.06929687 -30.04125 47.13859375 -30.0625 46.1796875 C-29.99872492 42.9351305 -29.36872117 40.90853248 -28 38 C-28.99 37.505 -28.99 37.505 -30 37 C-27.525 36.505 -27.525 36.505 -25 36 C-25.01571045 35.38592285 -25.0314209 34.7718457 -25.04760742 34.13916016 C-25.11076194 31.30120411 -25.14924177 28.46339667 -25.1875 25.625 C-25.21263672 24.65949219 -25.23777344 23.69398437 -25.26367188 22.69921875 C-25.32973094 16.13735165 -24.75878935 10.03785751 -22 4 C-19.1875 1.5 -19.1875 1.5 -16 0 C-15.0925 -0.45375 -14.185 -0.9075 -13.25 -1.375 C-8.54750997 -2.27932501 -4.51276039 -1.5326356 0 0 Z " fill="#7D9C67" transform="translate(79,32)"/>
<path d="M0 0 C2.47676311 1.93308341 3.61720953 3.23441906 5 6 C5.15411106 8.0307477 5.24982453 10.06606421 5.31640625 12.1015625 C5.35830078 13.31328125 5.40019531 14.525 5.44335938 15.7734375 C5.48267578 17.04445313 5.52199219 18.31546875 5.5625 19.625 C5.60568359 20.90375 5.64886719 22.1825 5.69335938 23.5 C5.79969886 26.66655348 5.90172833 29.83318753 6 33 C6.268125 32.360625 6.53625 31.72125 6.8125 31.0625 C8 29 8 29 11 28 C10.41321669 31.52069985 9.64350079 33.71299843 8 37 C12.455 36.505 12.455 36.505 17 36 C16.34 37.32 15.68 38.64 15 40 C12.21484375 40.64453125 12.21484375 40.64453125 8.9375 40.8125 C7.31134766 40.91498047 7.31134766 40.91498047 5.65234375 41.01953125 C3 41 3 41 2 40 C-0.21855264 39.91216458 -2.43988496 39.89305391 -4.66015625 39.90234375 C-5.32462265 39.9037587 -5.98908905 39.90517365 -6.6736908 39.90663147 C-8.80333899 39.91224482 -10.93288339 39.92479946 -13.0625 39.9375 C-14.50325369 39.94251329 -15.94400903 39.94707649 -17.38476562 39.95117188 C-20.92321102 39.96221855 -24.46159539 39.97949208 -28 40 C-28 39.34 -28 38.68 -28 38 C-28.66 37.67 -29.32 37.34 -30 37 C-27.525 36.505 -27.525 36.505 -25 36 C-25.01571045 35.38592285 -25.0314209 34.7718457 -25.04760742 34.13916016 C-25.11076194 31.30120411 -25.14924177 28.46339667 -25.1875 25.625 C-25.21263672 24.65949219 -25.23777344 23.69398437 -25.26367188 22.69921875 C-25.32973094 16.13735165 -24.75878935 10.03785751 -22 4 C-19.1875 1.5 -19.1875 1.5 -16 0 C-14.63875 -0.680625 -14.63875 -0.680625 -13.25 -1.375 C-8.54750997 -2.27932501 -4.51276039 -1.5326356 0 0 Z " fill="#739B57" transform="translate(79,32)"/>
<path d="M0 0 C0.99 0 1.98 0 3 0 C3 4.62 3 9.24 3 14 C4.32 14.33 5.64 14.66 7 15 C16.06691279 21.66729433 24.18278208 31.27113307 28 42 C28.94012454 48.34584064 26.56029243 53.31935116 24 59 C22.68 59 21.36 59 20 59 C19.34 60.65 18.68 62.3 18 64 C17.67 64 17.34 64 17 64 C16.97494385 63.17274414 16.9498877 62.34548828 16.92407227 61.49316406 C16.80803651 57.74528808 16.685344 53.99765875 16.5625 50.25 C16.52318359 48.94804688 16.48386719 47.64609375 16.44335938 46.3046875 C16.40146484 45.05429687 16.35957031 43.80390625 16.31640625 42.515625 C16.26141968 40.78747559 16.26141968 40.78747559 16.20532227 39.02441406 C16.03547826 36.52259776 15.72031525 34.38908832 15 32 C7.34965723 29.27631776 1.81126935 28.3056642 -5.77734375 31.625 C-8.94833606 33.58666835 -9.98483488 35.44692208 -11 39 C-11.78410732 42.45959172 -12.17138821 45.75819772 -12.31640625 49.30078125 C-12.35830078 50.27724609 -12.40019531 51.25371094 -12.44335938 52.25976562 C-12.48267578 53.26716797 -12.52199219 54.27457031 -12.5625 55.3125 C-12.60568359 56.33923828 -12.64886719 57.36597656 -12.69335938 58.42382812 C-12.79906825 60.94909569 -12.90116468 63.47445562 -13 66 C-14.98 66.495 -14.98 66.495 -17 67 C-16.67 67.99 -16.34 68.98 -16 70 C-17.48117801 69.71872579 -18.95993249 69.42466268 -20.4375 69.125 C-21.26121094 68.96257812 -22.08492187 68.80015625 -22.93359375 68.6328125 C-23.61550781 68.42398438 -24.29742187 68.21515625 -25 68 C-25.33 67.34 -25.66 66.68 -26 66 C-22.535 65.505 -22.535 65.505 -19 65 C-19.42152344 64.09636719 -19.84304687 63.19273438 -20.27734375 62.26171875 C-20.82519531 61.08222656 -21.37304688 59.90273438 -21.9375 58.6875 C-22.48277344 57.51574219 -23.02804688 56.34398437 -23.58984375 55.13671875 C-25.69660104 50.45049685 -26.38736812 47.14876787 -26 42 C-21.26445572 31.05535113 -13.79747473 21.45377428 -5.0625 13.4375 C-1.85691428 10.35308763 -0.42496561 8.39432843 0.0625 3.9375 C0.041875 2.638125 0.02125 1.33875 0 0 Z " fill="#7F9D68" transform="translate(67,2)"/>
<path d="M0 0 C8.91 0 17.82 0 27 0 C28.9756714 3.9513428 29.32146684 5.71734709 29.375 10 C29.40335938 11.03125 29.43171875 12.0625 29.4609375 13.125 C28.88879504 16.69361737 27.81445111 17.80533776 25 20 C20.97810055 21.34063315 17.27337478 21.18417125 13.0625 21.1875 C12.25103516 21.19974609 11.43957031 21.21199219 10.60351562 21.22460938 C9.81783203 21.22654297 9.03214844 21.22847656 8.22265625 21.23046875 C7.50859619 21.23457764 6.79453613 21.23868652 6.05883789 21.24291992 C3.65286768 20.95904226 2.06577032 20.24969787 0 19 C-2.14619945 15.9029527 -2.27037707 13.2086265 -2.25 9.5 C-2.25515625 8.5615625 -2.2603125 7.623125 -2.265625 6.65625 C-2 4 -2 4 0 0 Z " fill="#F2F7EE" transform="translate(54,72)"/>
<path d="M0 0 C0.33 0 0.66 0 1 0 C1 5.61 1 11.22 1 17 C-0.258125 17.37125 -1.51625 17.7425 -2.8125 18.125 C-6.12896952 19.3672112 -6.8695988 19.80650144 -8.9375 22.875 C-10.46554687 27.3692555 -11.12259103 31.56615226 -11.31640625 36.30078125 C-11.35830078 37.27724609 -11.40019531 38.25371094 -11.44335938 39.25976562 C-11.48267578 40.26716797 -11.52199219 41.27457031 -11.5625 42.3125 C-11.60568359 43.33923828 -11.64886719 44.36597656 -11.69335938 45.42382812 C-11.79906825 47.94909569 -11.90116468 50.47445562 -12 53 C-16.12904333 49.32973927 -18.06867429 46.20580827 -19.875 41 C-20.30554687 39.80375 -20.73609375 38.6075 -21.1796875 37.375 C-22.6315238 31.40173065 -20.43633331 27.45673963 -17.49316406 22.35009766 C-15.07782981 18.54859218 -12.27452724 15.12655114 -9.375 11.6875 C-8.23643277 10.31685995 -7.09839451 8.94578028 -5.9609375 7.57421875 C-5.17928223 6.63908447 -5.17928223 6.63908447 -4.38183594 5.68505859 C-3.26927586 4.3283643 -2.20788163 2.92979752 -1.1640625 1.51953125 C-0.58785156 0.76736328 -0.58785156 0.76736328 0 0 Z " fill="#F8FCF4" transform="translate(66,15)"/>
<path d="M0 0 C1.62760417 1.39973958 3.25520833 2.79947917 4.8828125 4.19921875 C6.53853279 5.60749744 8.24323969 6.95822822 9.96484375 8.28515625 C15.443734 12.8597887 20.16216441 20.47000756 21.4609375 27.4921875 C21.29446541 29.88412862 20.81188599 31.74050598 20 34 C19.62359375 35.04929688 19.2471875 36.09859375 18.859375 37.1796875 C15.51480263 45.74259868 15.51480263 45.74259868 13 47 C12.97494385 46.17274414 12.9498877 45.34548828 12.92407227 44.49316406 C12.80803651 40.74528808 12.685344 36.99765875 12.5625 33.25 C12.52318359 31.94804688 12.48386719 30.64609375 12.44335938 29.3046875 C12.40146484 28.05429687 12.35957031 26.80390625 12.31640625 25.515625 C12.27974854 24.36352539 12.24309082 23.21142578 12.20532227 22.02441406 C12.07599147 18.8045382 12.07599147 18.8045382 11 15 C7.37 14.01 3.74 13.02 0 12 C0 8.04 0 4.08 0 0 Z " fill="#F1F7EB" transform="translate(71,19)"/>
<path d="M0 0 C0.33 0 0.66 0 1 0 C1.33 1.65 1.66 3.3 2 5 C2.33 3.68 2.66 2.36 3 1 C9.75058928 2.00870874 14.96320589 8.49732292 19.06640625 13.5390625 C29.15628318 27.61694694 29.15628318 27.61694694 28 36 C26.8367157 39.41464056 25.48183525 42.71217805 24 46 C23.01 46 22.02 46 21 46 C21.48933844 43.22708219 22.10233528 40.71707305 23.0625 38.0625 C24.39750549 33.70148208 24.60001324 30.44203181 22.828125 26.18359375 C18.0953444 17.94808691 13.21232299 12.13955183 6 6 C5.67 5.67 5.34 5.34 5 5 C4.67 8.63 4.34 12.26 4 16 C2.68 16.33 1.36 16.66 0 17 C0 11.39 0 5.78 0 0 Z " fill="#819E6E" transform="translate(67,15)"/>
<path d="M0 0 C1.8125 0.125 1.8125 0.125 4 1 C5.58482475 3.59911259 6.75904043 6.08365009 7.53515625 9.03515625 C8.44058988 12.24314956 9.11755083 14.35838592 11.875 16.36328125 C17.14585345 18.87974774 22.20949561 19.63234893 28 20 C28 20.66 28 21.32 28 22 C29.65 22.33 31.3 22.66 33 23 C33 23.33 33 23.66 33 24 C24.09594796 24.51369531 14.21122754 22.9458512 6.69140625 17.859375 C2.5566408 13.31399773 0 6.114022 0 0 Z " fill="#88A473" transform="translate(16,60)"/>
<path d="M0 0 C1.41366158 0.20895363 2.83060623 0.39690406 4.25 0.5625 C5.4875 0.706875 6.725 0.85125 8 1 C8 1.33 8 1.66 8 2 C7.38253906 2.01417969 6.76507813 2.02835937 6.12890625 2.04296875 C-1.82812251 2.49108148 -7.17714958 5.05934583 -13.4375 9.875 C-15.53478633 12.72730941 -16.21052438 15.57893898 -17 19 C-17.99 19 -18.98 19 -20 19 C-19.62686977 13.0299164 -18.11793975 8.46265416 -14 4 C-9.48222821 0.90773872 -5.44843106 -1.8270188 0 0 Z " fill="#86A070" transform="translate(40,89)"/>
<path d="M0 0 C0.33 0 0.66 0 1 0 C1.33 1.65 1.66 3.3 2 5 C2.33 3.68 2.66 2.36 3 1 C7.13813705 1.53176995 9.27082318 3.77932166 12.25 6.5625 C13.14203125 7.38878906 14.0340625 8.21507812 14.953125 9.06640625 C15.62859375 9.70449219 16.3040625 10.34257812 17 11 C16.01 11.66 15.02 12.32 14 13 C12.68712379 11.85459775 11.37470979 10.70866567 10.0625 9.5625 C9.33160156 8.92441406 8.60070312 8.28632813 7.84765625 7.62890625 C6.87860647 6.77458541 5.91348825 5.91348825 5 5 C4.67 8.63 4.34 12.26 4 16 C2.68 16.33 1.36 16.66 0 17 C0 11.39 0 5.78 0 0 Z " fill="#8FA97A" transform="translate(67,15)"/>
<path d="M0 0 C0.99 0 1.98 0 3 0 C3 5.94 3 11.88 3 18 C2.34 18.33 1.68 18.66 1 19 C1 17.02 1 15.04 1 13 C-0.11375 14.175625 -0.11375 14.175625 -1.25 15.375 C-3.54433318 17.56504531 -5.12158858 18.82731386 -8 20 C-7.04200144 16.25509655 -6.34978463 14.3156593 -3.4375 11.6875 C-0.10712929 8.01555281 -0.11538827 4.81483786 0 0 Z " fill="#7C9965" transform="translate(67,2)"/>
<path d="M0 0 C2.86503068 1.2843241 5.15427705 2.41598787 7 5 C7.42478586 9.07794425 7.31282587 10.53076119 5 14 C4.34 14 3.68 14 3 14 C2.896875 12.9275 2.79375 11.855 2.6875 10.75 C2.00585849 7.0319554 1.23819082 5.84860649 -1 3 C-0.67 2.01 -0.34 1.02 0 0 Z " fill="#789C61" transform="translate(87,105)"/>
<path d="M0 0 C1.8125 0.125 1.8125 0.125 4 1 C6.66280693 5.08931064 7.34568576 8.16039934 7 13 C6.01 13 5.02 13 4 13 C3.32694982 11.39850114 2.66177773 9.79368971 2 8.1875 C1.62875 7.29417969 1.2575 6.40085937 0.875 5.48046875 C0 3 0 3 0 0 Z " fill="#799B64" transform="translate(16,60)"/>
<path d="M0 0 C-0.66 1.32 -1.32 2.64 -2 4 C1.63 4.33 5.26 4.66 9 5 C9 5.33 9 5.66 9 6 C3.06 6 -2.88 6 -9 6 C-8.01 5.67 -7.02 5.34 -6 5 C-6 4.01 -6 3.02 -6 2 C-3 0 -3 0 0 0 Z " fill="#C2D4B5" transform="translate(67,87)"/>
<path d="M0 0 C-0.6171875 1.953125 -0.6171875 1.953125 -2 4 C-4.8203125 4.609375 -4.8203125 4.609375 -8.125 4.75 C-9.22070312 4.80671875 -10.31640625 4.8634375 -11.4453125 4.921875 C-12.28835937 4.94765625 -13.13140625 4.9734375 -14 5 C-14 4.01 -14 3.02 -14 2 C-13.0925 2.04125 -12.185 2.0825 -11.25 2.125 C-6.94065444 1.95925594 -4.38990744 0 0 0 Z " fill="#7C9B63" transform="translate(96,68)"/>
<path d="M0 0 C0.66 0.33 1.32 0.66 2 1 C2 5.95 2 10.9 2 16 C1.34 16.33 0.68 16.66 0 17 C-1.14819277 11.1314592 -0.77313045 5.9114744 0 0 Z " fill="#73995D" transform="translate(68,4)"/>
<path d="M0 0 C0 0.99 0 1.98 0 3 C-2.31 4.32 -4.62 5.64 -7 7 C-7.33 5.35 -7.66 3.7 -8 2 C-4.91190305 0.23537317 -3.76687864 0 0 0 Z " fill="#7E9B66" transform="translate(34,91)"/>
<path d="M0 0 C0.33 0 0.66 0 1 0 C1.59823038 4.18761264 2.00620405 7.60795831 -0.55859375 11.15625 C-2.30827808 12.87424991 -4.07956003 14.47638564 -6 16 C-6.33 15.01 -6.66 14.02 -7 13 C-5.71034824 11.62437146 -4.37310707 10.29233607 -3 9 C-2.34 9 -1.68 9 -1 9 C-0.67 6.03 -0.34 3.06 0 0 Z " fill="#EBF5DE" transform="translate(66,2)"/>
<path d="M0 0 C-1.98 0.99 -1.98 0.99 -4 2 C-3.67 2.66 -3.34 3.32 -3 4 C-5.64 4.33 -8.28 4.66 -11 5 C-11 4.34 -11 3.68 -11 3 C-11.66 2.67 -12.32 2.34 -13 2 C-11.21089097 1.47044766 -9.41860852 0.9516063 -7.625 0.4375 C-6.62726563 0.14746094 -5.62953125 -0.14257812 -4.6015625 -0.44140625 C-2 -1 -2 -1 0 0 Z " fill="#859F70" transform="translate(105,79)"/>
<path d="M0 0 C0.2475 0.61875 0.495 1.2375 0.75 1.875 C2.20628639 4.35068687 3.37812506 4.95125002 6 6 C5.67 6.66 5.34 7.32 5 8 C1.34683329 6.75023244 0.21934164 6.32901247 -2 3 C-1.34 2.01 -0.68 1.02 0 0 Z " fill="#82A16F" transform="translate(52,87)"/>
<path d="M0 0 C1.875 0.1875 1.875 0.1875 4 1 C5.25 3.5625 5.25 3.5625 6 6 C4.68 6.33 3.36 6.66 2 7 C0.5393715 4.35261084 0 3.10551666 0 0 Z " fill="#809E6C" transform="translate(16,60)"/>
<path d="M0 0 C0.66 0.66 1.32 1.32 2 2 C1.05125 1.979375 0.1025 1.95875 -0.875 1.9375 C-3.90666283 1.77448174 -3.90666283 1.77448174 -6 3 C-6.65213292 5.02463255 -6.65213292 5.02463255 -7 7 C-7.99 5.35 -8.98 3.7 -10 2 C-6.32653229 -0.44897847 -4.33643601 -0.31537716 0 0 Z " fill="#E7F2DD" transform="translate(90,92)"/>
<path d="M0 0 C-0.50603992 2.16874252 -0.99983813 3.99967627 -2 6 C-4.0625 6.625 -4.0625 6.625 -6 7 C-5.6875 4.625 -5.6875 4.625 -5 2 C-2 0 -2 0 0 0 Z " fill="#789A62" transform="translate(52,31)"/>
<path d="M0 0 C0.98120464 3.05263664 0.98120464 4.94736336 0 8 C0.66 8 1.32 8 2 8 C2 8.99 2 9.98 2 11 C0.68 11 -0.64 11 -2 11 C-1.125 3.375 -1.125 3.375 0 0 Z " fill="#8CA478" transform="translate(87,126)"/>
<path d="M0 0 C0.33 0 0.66 0 1 0 C1 3.3 1 6.6 1 10 C0.01 10 -0.98 10 -2 10 C-1.85950482 8.52031676 -1.71245174 7.04125484 -1.5625 5.5625 C-1.48128906 4.73878906 -1.40007812 3.91507812 -1.31640625 3.06640625 C-1 1 -1 1 0 0 Z " fill="#759A58" transform="translate(89,124)"/>
<path d="M0 0 C0.99 0.33 1.98 0.66 3 1 C0.69 3.64 -1.62 6.28 -4 9 C-4.66 8.67 -5.32 8.34 -6 8 C-4.02 5.36 -2.04 2.72 0 0 Z " fill="#F0F9EA" transform="translate(61,96)"/>
<path d="M0 0 C1.32 1.32 2.64 2.64 4 4 C3.34 5.32 2.68 6.64 2 8 C0.35 5.69 -1.3 3.38 -3 1 C-2.01 0.67 -1.02 0.34 0 0 Z " fill="#86A071" transform="translate(80,95)"/>
<path d="M0 0 C2.22189824 2.22189824 2.92598892 4.08482708 4 7 C3.01 7.66 2.02 8.32 1 9 C0.01 6.69 -0.98 4.38 -2 2 C-1.34 2 -0.68 2 0 2 C0 1.34 0 0.68 0 0 Z " fill="#86A171" transform="translate(47,58)"/>
<path d="M0 0 C1.9375 0.25 1.9375 0.25 4 1 C4.66 1.99 5.32 2.98 6 4 C5.01 4.33 4.02 4.66 3 5 C1.68 3.68 0.36 2.36 -1 1 C-0.67 0.67 -0.34 0.34 0 0 Z " fill="#8AA678" transform="translate(78,23)"/>
<path d="M0 0 C2.475 0.99 2.475 0.99 5 2 C5 2.99 5 3.98 5 5 C3.68 4.67 2.36 4.34 1 4 C0.67 2.68 0.34 1.36 0 0 Z " fill="#7A975E" transform="translate(52,131)"/>
<path d="M0 0 C2 1.3125 2 1.3125 4 3 C4 3.99 4 4.98 4 6 C2.68 5.34 1.36 4.68 0 4 C0 2.68 0 1.36 0 0 Z " fill="#8AA279" transform="translate(110,102)"/>
<path d="M0 0 C2.96175123 0.61277612 4.38058783 1.25372522 7 3 C5.35 3.33 3.7 3.66 2 4 C1.34 2.68 0.68 1.36 0 0 Z " fill="#98A887" transform="translate(69,87)"/>
<path d="M0 0 C0.33 0.99 0.66 1.98 1 3 C-0.4375 5.1875 -0.4375 5.1875 -2 7 C-2.66 6.34 -3.32 5.68 -4 5 C-2.25 1.125 -2.25 1.125 0 0 Z " fill="#7B9A65" transform="translate(89,60)"/>
</svg>
