<?xml version="1.0" encoding="UTF-8"?>
<svg version="1.1" xmlns="http://www.w3.org/2000/svg" width="300" height="300">
<path d="M0 0 C99 0 198 0 300 0 C300 99 300 198 300 300 C201 300 102 300 0 300 C0 201 0 102 0 0 Z " fill="#FDFEFE" transform="translate(0,0)"/>
<path d="M0 0 C99 0 198 0 300 0 C300 99 300 198 300 300 C201 300 102 300 0 300 C0 201 0 102 0 0 Z M116 14 C114.79730469 14.29003906 113.59460938 14.58007812 112.35546875 14.87890625 C93.61152763 19.8180484 75.56551005 28.05549026 61 41 C60.03578125 41.84433594 59.0715625 42.68867187 58.078125 43.55859375 C39.84545239 59.74408908 26.19283954 78.97009503 17.4375 101.75 C17.17356445 102.4298999 16.90962891 103.1097998 16.63769531 103.81030273 C15.13625653 107.84220392 15.13625653 107.84220392 16 112 C15.66015625 114.20703125 15.66015625 114.20703125 15 117 C12.50687752 128.81972577 11.61861228 139.92272214 12 152 C12.33 152 12.66 152 13 152 C13.12117187 150.72382813 13.24234375 149.44765625 13.3671875 148.1328125 C13.53599491 146.46349474 13.7052911 144.79422635 13.875 143.125 C13.95363281 142.28324219 14.03226563 141.44148437 14.11328125 140.57421875 C14.19707031 139.76855469 14.28085938 138.96289062 14.3671875 138.1328125 C14.44050293 137.38918457 14.51381836 136.64555664 14.58935547 135.87939453 C15 134 15 134 17 132 C17.7382638 129.63846416 17.7382638 129.63846416 18.296875 126.86328125 C18.53003418 125.81825439 18.76319336 124.77322754 19.00341797 123.6965332 C19.24979004 122.57980225 19.49616211 121.46307129 19.75 120.3125 C27.30868179 87.65927241 45.66344926 59.51676662 73.6875 40.625 C74.3052832 40.20782715 74.92306641 39.7906543 75.55957031 39.36083984 C79.56346923 36.73829675 83.55231647 34.76993825 88 33 C87.30519531 33.40605469 86.61039062 33.81210937 85.89453125 34.23046875 C69.2715503 44.78574563 55.02404007 60.04626641 44.11132812 76.35839844 C42.29355054 79.04353386 40.35999759 81.63894831 38.4375 84.25 C35.39238044 88.42833453 32.95743638 91.85739136 31.62109375 96.90234375 C30.943699 99.19014866 30.07301101 101.34694434 29.1875 103.5625 C22.68946738 121.60986608 21.04843783 138.92026933 22 158 C22.04543945 158.93714844 22.09087891 159.87429687 22.13769531 160.83984375 C24.2770715 198.87933253 45.51362953 231.72001845 73 257 C78.96971322 262.02578783 85.50610416 265.59382635 92.4375 269.125 C93.42298828 269.63675781 94.40847656 270.14851563 95.42382812 270.67578125 C103.75790709 274.97260924 112.01163674 279.02719971 121.0625 281.5625 C121.8054834 281.77156982 122.5484668 281.98063965 123.31396484 282.19604492 C133.67361093 284.92343192 144.36644819 285.91281613 155 287 C155 287.33 155 287.66 155 288 C163.95754016 288.46037455 172.1881489 287.07625693 180.9375 285.25 C182.21818359 284.99734375 183.49886719 284.7446875 184.81835938 284.484375 C195.0247474 282.40462196 204.79446268 279.84510047 214.015625 274.9296875 C216.2629499 273.87680693 218.48379322 273.22342361 220.875 272.5625 C230.87089504 269.69344921 238.84254023 264.32928099 247 258 C247.95712891 257.27683594 247.95712891 257.27683594 248.93359375 256.5390625 C254.46097015 252.1222675 258.71653273 246.59096758 263 241 C263.54398438 240.31808594 264.08796875 239.63617188 264.6484375 238.93359375 C268.66361502 233.37500985 268.87676106 227.7221239 269 221 C264.33867137 224.57729872 261.26088466 228.10867301 258 233 C258.33 232.01 258.66 231.02 259 230 C258.67 229.34 258.34 228.68 258 228 C257.64808594 228.54269531 257.29617188 229.08539063 256.93359375 229.64453125 C253.36824614 234.81102714 250.88785528 236.92834722 245 239 C243.6423204 239.96668706 242.30338924 240.96127277 241 242 C241.53367188 241.45214844 242.06734375 240.90429688 242.6171875 240.33984375 C250.99956939 231.4208734 258.82361048 221.23508497 263.28125 209.734375 C264 208 264 208 266 205 C266.69184489 202.95247525 267.33188268 200.88716494 267.9375 198.8125 C269.01165748 195.19219146 270.08269587 191.66114548 271.5625 188.1875 C275.28499817 178.58630253 276.54072479 167.2153941 277 157 C277.07927734 155.27136719 277.07927734 155.27136719 277.16015625 153.5078125 C277.49998419 138.82133535 275.42411943 124.35123553 271.5625 110.1875 C271.36954346 109.4773877 271.17658691 108.76727539 270.9777832 108.03564453 C269.69419546 103.6307356 267.96307054 99.69570889 265.78491211 95.6574707 C265 94 265 94 265 92 C265.23074219 92.63808594 265.46148437 93.27617188 265.69921875 93.93359375 C266.67450112 96.40456607 267.64838308 98.71131959 269 101 C271.6087705 102.2113453 271.6087705 102.2113453 274 102 C265.52924184 73.76413948 244.33750177 49.93750116 220 34 C248.95596316 48.87121071 269.45465917 74.91960361 279.90625 105.50390625 C288.49840706 132.96812257 286.45639501 158.35660002 280 186 C283.06878 185.36622662 283.06878 185.36622662 283.88989258 183.26098633 C293.97194939 150.6107699 289.8523369 112.68433481 274.13549805 82.40625 C271.12513108 76.91354854 267.59502732 71.80753707 263.8828125 66.76953125 C262 64 262 64 260.98828125 61.4296875 C253.10791288 42.05581744 225.30376135 27.98505842 206.99414062 20.140625 C179.5146159 8.81767215 144.85101996 6.732662 116 14 Z " fill="#FDFEFE" transform="translate(0,0)"/>
<path d="M0 0 C0.65758301 0.29245605 1.31516602 0.58491211 1.99267578 0.88623047 C21.23388663 9.57536441 44.84723985 24.79533354 53 45 C54.03461964 46.49880035 55.10101467 47.97586054 56.1875 49.4375 C76.45746086 77.98613961 81.50387499 115.5360206 75.94921875 149.44921875 C75.07496746 154.02002184 74.13035225 158.83690011 72 163 C71.01 163.33 70.02 163.66 69 164 C69.26554687 162.86304688 69.53109375 161.72609375 69.8046875 160.5546875 C78.03648956 124.81870749 76.26034461 88.60482736 56.66918945 56.56787109 C44.58154892 37.5205285 29.2212872 23.76736284 10 12 C11.5778125 13.11375 11.5778125 13.11375 13.1875 14.25 C18.97346677 18.59203524 24.18825055 23.54088595 29.42773438 28.515625 C30.82838222 29.83797576 32.24882947 31.13928302 33.671875 32.4375 C46.2658443 44.30952201 57.70969147 61.50475229 63 78 C63 78.66 63 79.32 63 80 C60.75 80.0625 60.75 80.0625 58 79 C56.30699573 76.13325156 55.13036377 73.12586629 54 70 C59.36179363 83.0324936 63.02079011 96.05690946 65 110 C65.13148438 110.825 65.26296875 111.65 65.3984375 112.5 C68.37544385 133.74134264 65.15992207 156.16426681 56.875 175.80859375 C56.05659908 177.85824964 55.43544786 179.86767103 54.875 182 C54 185 54 185 52 187 C51.62875 188.11375 51.2575 189.2275 50.875 190.375 C47.41063584 199.95396691 40.36679028 208.02999271 33.8828125 215.72265625 C31.8902753 218.05337046 31.8902753 218.05337046 30 221 C30.45890625 220.57847656 30.9178125 220.15695313 31.390625 219.72265625 C32.31101563 218.90087891 32.31101563 218.90087891 33.25 218.0625 C33.85328125 217.51722656 34.4565625 216.97195312 35.078125 216.41015625 C37 215 37 215 39.03125 214.5625 C41.80722249 213.769365 42.62112955 212.26974632 44.25 209.9375 C44.77078125 209.20402344 45.2915625 208.47054687 45.828125 207.71484375 C46.21484375 207.14894531 46.6015625 206.58304688 47 206 C47.33 206.66 47.66 207.32 48 208 C47.67 208.99 47.34 209.98 47 211 C47.54269531 210.30132812 48.08539063 209.60265625 48.64453125 208.8828125 C49.35996094 207.97273437 50.07539063 207.06265625 50.8125 206.125 C51.52019531 205.22007812 52.22789062 204.31515625 52.95703125 203.3828125 C55 201 55 201 58 199 C57.97009079 207.8381729 56.55406367 213.15681526 51 220 C50.37480469 220.8353125 49.74960937 221.670625 49.10546875 222.53125 C42.83448632 230.74413429 35.82411449 236.57299326 27.3125 242.3125 C26.67046631 242.745625 26.02843262 243.17875 25.36694336 243.625 C20.59322953 246.77149468 16.03095778 248.77255237 10.5 250.25 C6.40010412 251.43951324 2.75833623 253.03903694 -1.0625 254.9375 C-8.08949587 258.26218847 -15.06944222 259.97028081 -22.64208984 261.51464844 C-25.14843606 262.03055404 -27.64597425 262.58048514 -30.14453125 263.1328125 C-38.79731751 265.00372876 -47.08957104 266.73572349 -56 266 C-56 265.67 -56 265.34 -56 265 C-56.76852295 264.91548584 -57.5370459 264.83097168 -58.32885742 264.74389648 C-92.21424357 260.88852172 -120.7908241 250.89306681 -146 227 C-147.32837891 225.75283203 -147.32837891 225.75283203 -148.68359375 224.48046875 C-172.55440708 201.42893451 -187.33844337 169.00273986 -189 136 C-189.05591309 135.00677734 -189.11182617 134.01355469 -189.16943359 132.99023438 C-190.1349725 113.46015412 -188.33229752 93.50297995 -179 76 C-178.71125 74.865625 -178.4225 73.73125 -178.125 72.5625 C-175.2868258 63.57494838 -168.13533901 56.10738131 -162.38305664 48.77929688 C-161.3912033 47.50328149 -160.41271674 46.21683286 -159.44311523 44.92382812 C-154.99148241 39.04394973 -150.14187237 33.7213161 -144.9375 28.5 C-143.70036255 27.25706177 -143.70036255 27.25706177 -142.43823242 25.98901367 C-135.8467695 19.51995726 -129.11663003 14.40919706 -121 10 C-145.57654469 21.30666479 -164.73603913 39.57950683 -178 63 C-178.36754395 63.63921387 -178.73508789 64.27842773 -179.11376953 64.93701172 C-186.68644748 78.30843263 -190.88395145 92.87000099 -193.45947266 107.97314453 C-194 110 -194 110 -196 112 C-196.45974503 113.92901141 -196.45974503 113.92901141 -196.6328125 116.1328125 C-196.75849609 117.34130859 -196.75849609 117.34130859 -196.88671875 118.57421875 C-196.96535156 119.41597656 -197.04398438 120.25773438 -197.125 121.125 C-197.21136719 121.97449219 -197.29773438 122.82398438 -197.38671875 123.69921875 C-197.59902557 125.79869727 -197.80053603 127.89926242 -198 130 C-198.33 130 -198.66 130 -199 130 C-199.54718154 117.4148245 -198.2496065 106.03871074 -195.3671875 93.77734375 C-194.79137987 90.99018982 -195.06890056 89.79329831 -196 87 C-195.30761318 84.53751122 -194.5448377 82.25210227 -193.625 79.875 C-193.21942871 78.81853271 -193.21942871 78.81853271 -192.80566406 77.74072266 C-185.3109831 58.83691477 -174.30853494 42.3891865 -160 28 C-159.49597656 27.49194824 -158.99195313 26.98389648 -158.47265625 26.46044922 C-118.56330654 -13.23741079 -50.90432912 -23.0316417 0 0 Z M-153 47 C-158.78645617 54.52964656 -163.70158355 62.53635746 -168 71 C-168.30647461 71.57290771 -168.61294922 72.14581543 -168.92871094 72.73608398 C-171.75024242 78.12950808 -173.74144527 83.65765397 -175.625 89.4375 C-175.9240625 90.32759766 -176.223125 91.21769531 -176.53125 92.13476562 C-186.67997305 122.87282281 -184.31963734 157.78804601 -170.09570312 186.85546875 C-165.08014484 196.67201598 -159.23456821 205.65558325 -152 214 C-151.29875 214.85722656 -150.5975 215.71445313 -149.875 216.59765625 C-136.44202471 232.36778771 -118.53399243 243.4077788 -99.1875 250.4375 C-98.22070312 250.79026001 -98.22070312 250.79026001 -97.234375 251.15014648 C-84.93635386 255.32114284 -72.46556078 255.34415107 -59.62548828 255.31567383 C-56.61064418 255.31248481 -53.59675667 255.33614429 -50.58203125 255.36132812 C-48.65104289 255.36359889 -46.72005192 255.36430565 -44.7890625 255.36328125 C-43.89522858 255.372491 -43.00139465 255.38170074 -42.08047485 255.39118958 C-36.91173571 255.35294087 -33.5468477 254.70929768 -29 252 C-27.26314076 251.54999556 -25.51122264 251.15495996 -23.75 250.8125 C-0.50022897 245.28235521 17.92756979 231.032273 33 213 C32.67 212.34 32.34 211.68 32 211 C29.69 213.31 27.38 215.62 25 218 C26.64193475 215.76865277 28.32744752 213.60413061 30.09375 211.46875 C41.84307813 196.97282568 49.99815249 180.95017858 55 163 C55.31453125 161.90042969 55.6290625 160.80085937 55.953125 159.66796875 C56.7224985 156.79036101 57.38785401 153.91478784 58 151 C58.20496094 150.08347656 58.40992188 149.16695312 58.62109375 148.22265625 C61.82659749 131.39928837 60.90062756 113.60267115 57 97 C56.85014648 96.34708984 56.70029297 95.69417969 56.54589844 95.02148438 C50.89798968 70.77504805 37.76784266 45.71290057 18 30 C17.13117188 29.23429687 16.26234375 28.46859375 15.3671875 27.6796875 C-4.7490219 10.1383529 -30.31249717 -1.12307672 -57 -3 C-57.92554688 -3.0825 -58.85109375 -3.165 -59.8046875 -3.25 C-95.59904651 -4.9907591 -131.40842924 20.83484529 -153 47 Z " fill="#6DBC97" transform="translate(211,22)"/>
<path d="M0 0 C0.65758301 0.29245605 1.31516602 0.58491211 1.99267578 0.88623047 C21.23388663 9.57536441 44.84723985 24.79533354 53 45 C54.03461964 46.49880035 55.10101467 47.97586054 56.1875 49.4375 C76.45746086 77.98613961 81.50387499 115.5360206 75.94921875 149.44921875 C75.07496746 154.02002184 74.13035225 158.83690011 72 163 C71.01 163.33 70.02 163.66 69 164 C69.26554687 162.86304688 69.53109375 161.72609375 69.8046875 160.5546875 C78.03648956 124.81870749 76.26034461 88.60482736 56.66918945 56.56787109 C44.58154892 37.5205285 29.2212872 23.76736284 10 12 C11.5778125 13.11375 11.5778125 13.11375 13.1875 14.25 C21.92614544 20.8078783 30.1957663 28.4461062 37 37 C35.68 37.33 34.36 37.66 33 38 C33.845625 38.886875 34.69125 39.77375 35.5625 40.6875 C38.02603251 43.6008348 38.02603251 43.6008348 37.8125 46.875 C37.544375 47.57625 37.27625 48.2775 37 49 C36.01 49 35.02 49 34 49 C32.23828125 46.83984375 32.23828125 46.83984375 30.3125 43.9375 C26.66005496 38.7405546 22.91729739 34.95615026 18 31 C17.12730469 30.23042969 16.25460938 29.46085937 15.35546875 28.66796875 C-4.76243317 11.13550001 -30.31629153 -0.12334358 -57 -2 C-57.92554688 -2.0825 -58.85109375 -2.165 -59.8046875 -2.25 C-83.38710193 -3.39686514 -109.43126751 9.5098952 -128 23 C-128 21.68 -128 20.36 -128 19 C-130.31 19.33 -132.62 19.66 -135 20 C-132.03352255 16.80750523 -128.95036364 14.5407013 -125.25 12.25 C-124.26515625 11.63640625 -123.2803125 11.0228125 -122.265625 10.390625 C-121.51796875 9.93171875 -120.7703125 9.4728125 -120 9 C-144.70377847 21.38563757 -164.37544857 38.94280346 -178 63 C-178.36754395 63.63921387 -178.73508789 64.27842773 -179.11376953 64.93701172 C-186.68644748 78.30843263 -190.88395145 92.87000099 -193.45947266 107.97314453 C-194 110 -194 110 -196 112 C-196.45974503 113.92901141 -196.45974503 113.92901141 -196.6328125 116.1328125 C-196.75849609 117.34130859 -196.75849609 117.34130859 -196.88671875 118.57421875 C-196.96535156 119.41597656 -197.04398438 120.25773438 -197.125 121.125 C-197.21136719 121.97449219 -197.29773438 122.82398438 -197.38671875 123.69921875 C-197.59902557 125.79869727 -197.80053603 127.89926242 -198 130 C-198.33 130 -198.66 130 -199 130 C-199.54718154 117.4148245 -198.2496065 106.03871074 -195.3671875 93.77734375 C-194.79137987 90.99018982 -195.06890056 89.79329831 -196 87 C-195.30761318 84.53751122 -194.5448377 82.25210227 -193.625 79.875 C-193.21942871 78.81853271 -193.21942871 78.81853271 -192.80566406 77.74072266 C-185.3109831 58.83691477 -174.30853494 42.3891865 -160 28 C-159.49597656 27.49194824 -158.99195313 26.98389648 -158.47265625 26.46044922 C-118.56330654 -13.23741079 -50.90432912 -23.0316417 0 0 Z " fill="#6BBC96" transform="translate(211,22)"/>
<path d="M0 0 C11.20632159 4.18235931 20.20674459 12.12602582 29 20 C29.73089844 20.64582031 30.46179688 21.29164062 31.21484375 21.95703125 C54.73940305 44.03836605 66.98139602 77.34019043 68.19140625 109.08203125 C68.47605836 121.84983253 66.48653929 134.00716585 63.23339844 146.31616211 C62.16949964 150.16554272 62.16949964 150.16554272 62.55078125 154.05859375 C63.3041571 157.31448763 61.6952073 160.00715038 60.375 162.9375 C59.92205566 163.95976685 59.92205566 163.95976685 59.45996094 165.00268555 C54.62694392 175.44670043 48.47232553 188.06313662 40 196 C37.33976926 198.59534707 35.06593552 200.90109671 33 204 C31.88625 204.474375 30.7725 204.94875 29.625 205.4375 C26.16931598 206.92701897 24.41903016 208.19392502 22 211 C21.34 210.67 20.68 210.34 20 210 C20.60585937 209.37996094 21.21171875 208.75992188 21.8359375 208.12109375 C30.53564082 198.92617654 38.66495743 188.64440983 43.28125 176.734375 C44 175 44 175 46 172 C46.69184489 169.95247525 47.33188268 167.88716494 47.9375 165.8125 C49.01165748 162.19219146 50.08269587 158.66114548 51.5625 155.1875 C55.28499817 145.58630253 56.54072479 134.2153941 57 124 C57.05285156 122.84757812 57.10570312 121.69515625 57.16015625 120.5078125 C57.49998419 105.82133535 55.42411943 91.35123553 51.5625 77.1875 C51.36954346 76.4773877 51.17658691 75.76727539 50.9777832 75.03564453 C49.697547 70.64223714 47.97922618 66.81714755 45.68725586 62.8527832 C44.82736134 60.5345809 45.20510174 59.29767834 46 57 C46.67119549 58.4562545 47.33681807 59.91507867 48 61.375 C48.37125 62.18710938 48.7425 62.99921875 49.125 63.8359375 C50 66 50 66 50 68 C51.65 68.33 53.3 68.66 55 69 C44.67652509 41.90632323 26.51591783 19.51625833 2.7890625 3.01171875 C1.86867187 2.34785156 0.94828125 1.68398438 0 1 C0 0.67 0 0.34 0 0 Z " fill="#77BC9C" transform="translate(219,33)"/>
<path d="M0 0 C8.91 0 17.82 0 27 0 C27 1.32 27 2.64 27 4 C24.69 4 22.38 4 20 4 C22.82143175 10.08114416 26.15333762 15.20766104 30.25 20.5 C31.08144531 21.59054688 31.08144531 21.59054688 31.9296875 22.703125 C33.28064218 24.47334147 34.63739791 26.23874386 36 28 C38.94793366 26.69248704 40.80665048 25.38472387 42.875 22.91796875 C43.38546875 22.31533203 43.8959375 21.71269531 44.421875 21.09179688 C44.94265625 20.46337891 45.4634375 19.83496094 46 19.1875 C46.78117187 18.26227539 46.78117187 18.26227539 47.578125 17.31835938 C49.06289313 15.55425986 50.53237356 13.77836336 52 12 C52.78375 11.06800781 53.5675 10.13601562 54.375 9.17578125 C56.19946258 7.1855362 56.19946258 7.1855362 56 5 C53.69 4.67 51.38 4.34 49 4 C49 2.68 49 1.36 49 0 C56.59 0 64.18 0 72 0 C72 1.65 72 3.3 72 5 C70.700625 5.12375 69.40125 5.2475 68.0625 5.375 C61.32750078 6.87166649 58.16459103 11.86056495 54 17 C52.4054141 18.77946542 50.80147387 20.55060053 49.1875 22.3125 C46.33558874 25.45531659 43.62609395 28.66574588 41 32 C42.66321759 35.78336309 45.09313613 38.89454334 47.625 42.125 C48.0694043 42.69613525 48.51380859 43.26727051 48.97167969 43.85571289 C49.87869057 45.01901765 50.78753688 46.18089377 51.69824219 47.34130859 C52.87859676 48.84530877 54.05292936 50.35403021 55.2265625 51.86328125 C61.34177267 60.44303258 61.34177267 60.44303258 69.875 65.875 C70.57625 65.91625 71.2775 65.9575 72 66 C72 67.32 72 68.64 72 70 C63.09 70 54.18 70 45 70 C45 68.35 45 66.7 45 65 C47.64 65 50.28 65 53 65 C48.61614072 58.9081436 44.18458265 52.87114423 39.54296875 46.97265625 C38.00114306 45.00146138 36.49502862 43.00684023 35 41 C30.52700852 42.60514048 28.06792289 46.08593712 25.125 49.625 C24.59487305 50.25293457 24.06474609 50.88086914 23.51855469 51.52783203 C19.84790276 55.90351084 16.33799162 60.36390052 13 65 C15.64 65 18.28 65 21 65 C21 66.65 21 68.3 21 70 C13.41 70 5.82 70 -2 70 C-2 68.68 -2 67.36 -2 66 C-0.81277344 65.80277344 0.37445313 65.60554688 1.59765625 65.40234375 C6.64735913 64.13019638 9.1374673 61.43763574 12.4375 57.5625 C12.99026611 56.94084961 13.54303223 56.31919922 14.11254883 55.67871094 C18.30070547 50.93144541 22.34652856 46.05889925 26.29296875 41.109375 C28 39 28 39 30 37 C29.65688082 33.67530831 28.23984948 31.74941933 26.12109375 29.2421875 C25.53336182 28.53835937 24.94562988 27.83453125 24.34008789 27.109375 C23.71223389 26.37203125 23.08437988 25.6346875 22.4375 24.875 C21.15255269 23.3524844 19.86869279 21.82905039 18.5859375 20.3046875 C17.96557617 19.56831055 17.34521484 18.83193359 16.70605469 18.07324219 C15.25836712 16.31397446 13.87962698 14.53641618 12.5390625 12.6953125 C8.8206888 7.25505218 8.8206888 7.25505218 3 4.875 C2.01 4.91625 1.02 4.9575 0 5 C0 3.35 0 1.7 0 0 Z " fill="#72BD9A" transform="translate(125,111)"/>
<path d="M0 0 C8.58 0 17.16 0 26 0 C26 1.32 26 2.64 26 4 C24.02 4 22.04 4 20 4 C22.0273723 9.26183139 24.47046133 13.31191015 28 17.6875 C28.87508196 18.79550819 29.75008393 19.90357957 30.625 21.01171875 C31.40875 21.99785156 32.1925 22.98398438 33 24 C34.0058868 25.32889786 35.00888994 26.66004529 36 28 C39.78094432 26.73968523 40.74143725 25.11710652 43.1875 22 C46.82380184 17.42779752 50.59405882 13.05942587 54.56640625 8.77734375 C56.20927311 7.12112189 56.20927311 7.12112189 56 5 C53.69 4.67 51.38 4.34 49 4 C49 2.68 49 1.36 49 0 C56.26 0 63.52 0 71 0 C71 1.32 71 2.64 71 4 C69.9996875 4.17273438 68.999375 4.34546875 67.96875 4.5234375 C62.81181793 6.00462875 59.94790137 9.70789968 56.5 13.625 C55.87480469 14.31207031 55.24960938 14.99914062 54.60546875 15.70703125 C53.35015914 17.0922901 52.10397383 18.48587368 50.8671875 19.88769531 C49.59501039 21.32687894 48.30782907 22.75290554 47.0078125 24.16699219 C46.37617187 24.86211914 45.74453125 25.55724609 45.09375 26.2734375 C44.52333984 26.89395996 43.95292969 27.51448242 43.36523438 28.15380859 C41.84786519 30.20573022 41.18168531 31.45021539 41 34 C41.98552131 36.01080879 41.98552131 36.01080879 43.61328125 37.90625 C44.197146 38.64488281 44.78101074 39.38351563 45.38256836 40.14453125 C46.33788452 41.31048828 46.33788452 41.31048828 47.3125 42.5 C47.95388916 43.29792969 48.59527832 44.09585938 49.25610352 44.91796875 C50.55440418 46.52904848 51.85800771 48.13586989 53.16699219 49.73828125 C54.78152552 51.73042787 56.35592615 53.74496124 57.9140625 55.78125 C58.75448622 56.8547324 59.59557687 57.92769317 60.4375 59 C61.15808594 59.928125 61.87867188 60.85625 62.62109375 61.8125 C65.68705665 64.63177623 67.96451691 65.13700483 72 66 C72 67.32 72 68.64 72 70 C63.09 70 54.18 70 45 70 C45 68.68 45 67.36 45 66 C47.64 66 50.28 66 53 66 C50.07083588 60.26902673 46.31689621 55.59890636 42.1953125 50.66796875 C39.62541051 47.54476046 37.29344191 44.32918986 35 41 C26.3700473 44.47182005 17.13957029 56.72085943 13 65 C15.64 65 18.28 65 21 65 C21 66.65 21 68.3 21 70 C13.41 70 5.82 70 -2 70 C-2 68.35 -2 66.7 -2 65 C-0.88625 65.061875 0.2275 65.12375 1.375 65.1875 C8.21889868 64.36380954 11.91902659 57.99082978 16 53 C17.22370389 51.59937507 18.45219832 50.20290683 19.6875 48.8125 C20.79218255 47.54211507 21.89633928 46.27127275 23 45 C24.3119514 43.49952015 25.62444233 41.99951186 26.9375 40.5 C27.52402344 39.8296875 28.11054687 39.159375 28.71484375 38.46875 C29.13894531 37.9840625 29.56304687 37.499375 30 37 C28.71978483 34.30060865 27.31981522 31.9222793 25.53125 29.53125 C24.80542725 28.55877319 24.80542725 28.55877319 24.06494141 27.56665039 C21.38992259 24.03403974 18.70235836 20.51174037 16 17 C15.52336914 16.3723877 15.04673828 15.74477539 14.55566406 15.09814453 C13.26293439 13.40497491 11.94891761 11.73133842 10.625 10.0625 C9.87476563 9.10472656 9.12453125 8.14695312 8.3515625 7.16015625 C5.55769113 4.59369302 3.7311191 4.25268386 0 4 C0 2.68 0 1.36 0 0 Z " fill="#6FBC98" transform="translate(46,111)"/>
<path d="M0 0 C8.91 0 17.82 0 27 0 C27 1.32 27 2.64 27 4 C24.94921875 4.22786458 22.8984375 4.45572917 20.84765625 4.68359375 C18.98859771 4.81886614 18.98859771 4.81886614 18 6 C17.90623947 7.81055025 17.8825589 9.62477201 17.88647461 11.43774414 C17.88658791 13.17943626 17.88658791 13.17943626 17.88670349 14.95631409 C17.89186478 16.219832 17.89702606 17.48334991 17.90234375 18.78515625 C17.9037587 20.07111191 17.90517365 21.35706757 17.90663147 22.68199158 C17.91045582 26.10643443 17.92028538 29.53083509 17.93133545 32.95526123 C17.94155136 36.44738178 17.94618418 39.93950933 17.95117188 43.43164062 C17.96137753 50.28779772 17.98094923 57.14383885 18 64 C28.23 64 38.46 64 49 64 C49.66 60.04 50.32 56.08 51 52 C52.32 52 53.64 52 55 52 C54.40247977 58.27396241 53.39316676 63.7307496 52 70 C35.17 70 18.34 70 1 70 C1 68.35 1 66.7 1 65 C3.64 65 6.28 65 9 65 C8.67 45.2 8.34 25.4 8 5 C5.36 4.67 2.72 4.34 0 4 C0 2.68 0 1.36 0 0 Z " fill="#6CBC96" transform="translate(203,111)"/>
<path d="M0 0 C5.9032556 -0.25036129 10.44322956 0.44315403 16 2.375 C17.33254927 2.82265327 18.6658858 3.26796989 20 3.7109375 C20.65838867 3.93177002 21.31677734 4.15260254 21.99511719 4.38012695 C24.00953509 5.00294808 26.02134241 5.48003723 28.078125 5.94140625 C46.60887297 10.4430221 65.63982027 28.45313174 77 43 C78.06902939 45.30252483 79.07175817 47.6372026 80 50 C81.03403178 51.49920597 82.10061273 52.9761594 83.1875 54.4375 C103.45746086 82.98613961 108.50387499 120.5360206 102.94921875 154.44921875 C102.07496746 159.02002184 101.13035225 163.83690011 99 168 C98.01 168.33 97.02 168.66 96 169 C96.39832031 167.29457031 96.39832031 167.29457031 96.8046875 165.5546875 C105.03648956 129.81870749 103.26034461 93.60482736 83.66918945 61.56787109 C71.58154892 42.5205285 56.2212872 28.76736284 37 17 C37.51949219 17.37511719 38.03898437 17.75023438 38.57421875 18.13671875 C42.71174681 21.17294544 46.58407943 24.15708936 50 28 C50 29.66666667 50 31.33333333 50 33 C48.2925002 31.71937515 46.62626404 30.38232443 45 29 C45 28.34 45 27.68 45 27 C42.525 26.01 42.525 26.01 40 25 C40 24.34 40 23.68 40 23 C39.26910156 22.73316406 38.53820312 22.46632813 37.78515625 22.19140625 C34.23007109 20.67064752 31.32625741 18.56748576 28.18359375 16.33984375 C26.06428578 15.03944548 24.38018336 14.58853549 22 14 C21.67 13.34 21.34 12.68 21 12 C20.01 12 19.02 12 18 12 C17 11 16 10 15 9 C14.01 9 13.02 9 12 9 C12 8.34 12 7.68 12 7 C10.68 6.34 9.36 5.68 8 5 C10.97 5.495 10.97 5.495 14 6 C14 5.34 14 4.68 14 4 C13.24074219 3.87882812 12.48148438 3.75765625 11.69921875 3.6328125 C10.70535156 3.46523438 9.71148437 3.29765625 8.6875 3.125 C7.20830078 2.88136719 7.20830078 2.88136719 5.69921875 2.6328125 C3 2 3 2 0 0 Z " fill="#84BCA3" transform="translate(184,17)"/>
<path d="M0 0 C0.495 3.465 0.495 3.465 1 7 C0.21238281 7.46148437 -0.57523437 7.92296875 -1.38671875 8.3984375 C-29.46121293 25.20990976 -53.35003028 50.65167867 -61.796875 83.05712891 C-62.91210208 87.593657 -63.99019384 92.13539129 -64.99707031 96.69726562 C-65.23006836 97.74205078 -65.46306641 98.78683594 -65.703125 99.86328125 C-66.00718262 101.27540894 -66.00718262 101.27540894 -66.31738281 102.71606445 C-67 105 -67 105 -69 107 C-69.45974503 108.92901141 -69.45974503 108.92901141 -69.6328125 111.1328125 C-69.75849609 112.34130859 -69.75849609 112.34130859 -69.88671875 113.57421875 C-69.96535156 114.41597656 -70.04398438 115.25773437 -70.125 116.125 C-70.21136719 116.97449219 -70.29773438 117.82398438 -70.38671875 118.69921875 C-70.59902557 120.79869727 -70.80053603 122.89926242 -71 125 C-71.33 125 -71.66 125 -72 125 C-72.54718154 112.4148245 -71.2496065 101.03871074 -68.3671875 88.77734375 C-67.79137987 85.99018982 -68.06890056 84.79329831 -69 82 C-68.30761318 79.53751122 -67.5448377 77.25210227 -66.625 74.875 C-66.21942871 73.81853271 -66.21942871 73.81853271 -65.80566406 72.74072266 C-58.3109831 53.83691477 -47.30853494 37.3891865 -33 23 C-32.49597656 22.49194824 -31.99195313 21.98389648 -31.47265625 21.46044922 C-23.67285958 13.70198563 -15.41240735 7.65759256 -6 2 C-3 0 -3 0 0 0 Z " fill="#70BC99" transform="translate(84,27)"/>
<path d="M0 0 C11.20632159 4.18235931 20.20674459 12.12602582 29 20 C29.73089844 20.64582031 30.46179688 21.29164062 31.21484375 21.95703125 C54.73940305 44.03836605 66.98139602 77.34019043 68.19140625 109.08203125 C68.47410572 121.68951561 66.46066785 133.5979886 63.5 145.8125 C63.28641846 146.70356445 63.07283691 147.59462891 62.8527832 148.51269531 C62.64355225 149.33995117 62.43432129 150.16720703 62.21875 151.01953125 C61.9393457 152.13485229 61.9393457 152.13485229 61.65429688 153.27270508 C61 155 61 155 59 156 C59.42266522 152.40734566 59.85143901 148.83784194 60.4831543 145.27514648 C62.05758657 136.25252239 62.44247581 127.37973844 62.4375 118.25 C62.43790283 117.48742889 62.43830566 116.72485779 62.4387207 115.93917847 C62.32125156 77.0857525 47.8711854 44.66505761 20.60571289 17.21899414 C15.10361938 11.85948424 9.08378754 7.39036637 2.7890625 3.01171875 C1.86867187 2.34785156 0.94828125 1.68398438 0 1 C0 0.67 0 0.34 0 0 Z " fill="#ECFBF5" transform="translate(219,33)"/>
<path d="M0 0 C0.33 0 0.66 0 1 0 C1 1.65 1 3.3 1 5 C2.32 4.67 3.64 4.34 5 4 C4.71758359 5.46015291 4.42373386 6.91809793 4.125 8.375 C3.96257812 9.18710938 3.80015625 9.99921875 3.6328125 10.8359375 C3 13 3 13 1 15 C0.62875 16.11375 0.2575 17.2275 -0.125 18.375 C-3.90287628 28.82082792 -11.89344491 37.64321763 -19 46 C-19.99 45.34 -20.98 44.68 -22 44 C-21.34 43.01 -20.68 42.02 -20 41 C-21.98 42.98 -23.96 44.96 -26 47 C-26.66 46.67 -27.32 46.34 -28 46 C-27.45472656 45.44054687 -26.90945312 44.88109375 -26.34765625 44.3046875 C-14.73646063 31.95910857 -4.99780437 16.27425744 0 0 Z " fill="#74BE9C" transform="translate(262,194)"/>
<path d="M0 0 C2.36426232 1.80734197 2.95723997 2.72367574 3.41992188 5.71362305 C3.4740989 9.37301002 3.51686385 13.02759407 3.5 16.6875 C3.49956696 17.35528473 3.49913391 18.02306946 3.49868774 18.71109009 C3.4519875 31.89652118 1.36744948 44.26804715 -2 57 C-2.22051025 57.91797363 -2.44102051 58.83594727 -2.66821289 59.78173828 C-4.27440304 66.21659716 -6.59639699 71.71379699 -9.8125 77.5 C-10.25827393 78.32097168 -10.70404785 79.14194336 -11.16333008 79.98779297 C-12.04229248 81.60462411 -12.92550359 83.21915462 -13.81347656 84.83105469 C-14.81321599 86.65856191 -15.78141981 88.5032695 -16.7421875 90.3515625 C-21.46240664 99.40928031 -26.99610782 106.6295552 -35 113 C-35.66 112.67 -36.32 112.34 -37 112 C-36.09121094 111.06994141 -36.09121094 111.06994141 -35.1640625 110.12109375 C-26.46435918 100.92617654 -18.33504257 90.64440983 -13.71875 78.734375 C-13 77 -13 77 -11 74 C-10.30815511 71.95247525 -9.66811732 69.88716494 -9.0625 67.8125 C-7.98834252 64.19219146 -6.91730413 60.66114548 -5.4375 57.1875 C-0.01927061 43.21261327 0.17018889 27.06587776 0.0625 12.3125 C0.05798828 11.12205078 0.05347656 9.93160156 0.04882812 8.70507812 C0.03717452 5.80333064 0.02081559 2.90169374 0 0 Z " fill="#D6F7E7" transform="translate(276,131)"/>
<path d="M0 0 C2.96052484 3.36423277 3.92289822 6.69159287 5 11 C7.97 11.495 7.97 11.495 11 12 C13.35988157 19.55880849 15.34832112 27.0797285 16.75 34.875 C16.87737549 35.56327881 17.00475098 36.25155762 17.13598633 36.96069336 C17.94802053 41.69575754 18.10745733 46.19665743 18 51 C17.67 51 17.34 51 17 51 C16.67 54.96 16.34 58.92 16 63 C15.67 63 15.34 63 15 63 C14.98541748 62.43490723 14.97083496 61.86981445 14.95581055 61.28759766 C14.88143942 58.73269981 14.78474758 56.17912502 14.6875 53.625 C14.65366211 52.29082031 14.65366211 52.29082031 14.61914062 50.9296875 C14.58369141 50.07890625 14.54824219 49.228125 14.51171875 48.3515625 C14.48553467 47.56604004 14.45935059 46.78051758 14.43237305 45.97119141 C14.15110403 43.59959844 14.15110403 43.59959844 11 42 C10.37158203 40.17504883 10.37158203 40.17504883 10.0078125 37.95703125 C9.86263184 37.13710693 9.71745117 36.31718262 9.56787109 35.47241211 C9.42172363 34.59464111 9.27557617 33.71687012 9.125 32.8125 C6.45325735 17.71899612 6.45325735 17.71899612 0 4 C0 2.68 0 1.36 0 0 Z " fill="#88CDAC" transform="translate(264,90)"/>
<path d="M0 0 C5.9032556 -0.25036129 10.44322956 0.44315403 16 2.375 C17.33254927 2.82265327 18.6658858 3.26796989 20 3.7109375 C20.65838867 3.93177002 21.31677734 4.15260254 21.99511719 4.38012695 C24.00953509 5.00294808 26.02134241 5.48003723 28.078125 5.94140625 C47.22056131 10.59161761 64.63250556 28.69074919 77 43 C76.67 43.99 76.34 44.98 76 46 C75.30132812 45.21753906 74.60265625 44.43507812 73.8828125 43.62890625 C72.9637002 42.60662828 72.04442066 41.58450065 71.125 40.5625 C70.66480469 40.04623047 70.20460938 39.52996094 69.73046875 38.99804688 C67.18206915 36.10512063 67.18206915 36.10512063 64 34 C64 33.34 64 32.68 64 32 C63.42636719 31.7421875 62.85273438 31.484375 62.26171875 31.21875 C59.79312907 29.88852551 57.93411754 28.33247674 55.8125 26.5 C39.27274976 13.12226083 20.34245453 6.26620243 0 1 C0 0.67 0 0.34 0 0 Z " fill="#AFDFC9" transform="translate(184,17)"/>
<path d="M0 0 C0.33 0.99 0.66 1.98 1 3 C1.66 3.33 2.32 3.66 3 4 C2.37351562 4.67546875 1.74703125 5.3509375 1.1015625 6.046875 C0.28429687 6.93890625 -0.53296875 7.8309375 -1.375 8.75 C-2.18710938 9.63171875 -2.99921875 10.5134375 -3.8359375 11.421875 C-5.6625848 13.59802521 -6.89787994 15.40820119 -8 18 C-5.36 18 -2.72 18 0 18 C0 19.65 0 21.3 0 23 C-7.59 23 -15.18 23 -23 23 C-23 21.35 -23 19.7 -23 18 C-21.88625 18.061875 -20.7725 18.12375 -19.625 18.1875 C-12.79656667 17.3870087 -9.04417989 10.99452748 -5 6 C-3.95895377 4.77030781 -2.917453 3.54099985 -1.875 2.3125 C-1.25625 1.549375 -0.6375 0.78625 0 0 Z " fill="#89C6AA" transform="translate(67,158)"/>
<path d="M0 0 C7.94662445 2.48245336 15.49457367 5.39503145 23 9 C22.67 10.32 22.34 11.64 22 13 C22.75925781 13.54269531 23.51851562 14.08539063 24.30078125 14.64453125 C25.29464844 15.35996094 26.28851563 16.07539062 27.3125 16.8125 C28.29863281 17.52019531 29.28476563 18.22789063 30.30078125 18.95703125 C34.32038217 21.99936306 34.32038217 21.99936306 36 24 C36 25.66666667 36 27.33333333 36 29 C34.2925002 27.71937515 32.62626404 26.38232443 31 25 C31 24.34 31 23.68 31 23 C28.525 22.01 28.525 22.01 26 21 C26 20.34 26 19.68 26 19 C25.26910156 18.73316406 24.53820312 18.46632813 23.78515625 18.19140625 C20.23007109 16.67064752 17.32625741 14.56748576 14.18359375 12.33984375 C12.06428578 11.03944548 10.38018336 10.58853549 8 10 C7.67 9.34 7.34 8.68 7 8 C6.01 8 5.02 8 4 8 C3 7 2 6 1 5 C0.01 5 -0.98 5 -2 5 C-2 4.34 -2 3.68 -2 3 C-3.32 2.34 -4.64 1.68 -6 1 C-3.03 1.495 -3.03 1.495 0 2 C0 1.34 0 0.68 0 0 Z " fill="#7CC7A3" transform="translate(198,21)"/>
<path d="M0 0 C0.66 0.33 1.32 0.66 2 1 C0.65808594 1.81791016 0.65808594 1.81791016 -0.7109375 2.65234375 C-13.67975298 10.68400323 -23.97070739 20.82223033 -34.64648438 31.63061523 C-35.76042175 32.75761284 -36.87951348 33.87951348 -38 35 C-38.495 33.515 -38.495 33.515 -39 32 C-40.65 33.32 -42.3 34.64 -44 36 C-43.57182275 31.54695662 -40.51930795 28.98455204 -37.5 26 C-36.92830078 25.4332959 -36.35660156 24.8665918 -35.76757812 24.28271484 C-25.64716954 14.55383754 -13.04012413 5.40382744 0 0 Z " fill="#EBFCF4" transform="translate(91,30)"/>
<path d="M0 0 C0.66 0.33 1.32 0.66 2 1 C1.45606715 5.27485256 0.03505719 7.71920095 -2.5625 11.125 C-3.27792969 12.07503906 -3.99335937 13.02507812 -4.73046875 14.00390625 C-5.47941406 14.99261719 -6.22835937 15.98132813 -7 17 C-8.46198044 19.01819639 -9.92047271 21.03892548 -11.375 23.0625 C-13.16910713 25.55352126 -14.83007814 27.83007814 -17 30 C-19.125 29.625 -19.125 29.625 -21 29 C-17.95244259 20.63476589 -11.21001144 7.0935057 -2.890625 2.94921875 C-0.82462488 2.14814807 -0.82462488 2.14814807 0 0 Z " fill="#F2FDF8" transform="translate(51,61)"/>
<path d="M0 0 C2.01822917 0.06510417 4.03645833 0.13020833 6.0546875 0.1953125 C5.7246875 0.8553125 5.3946875 1.5153125 5.0546875 2.1953125 C2.7446875 2.1953125 0.4346875 2.1953125 -1.9453125 2.1953125 C-1.77781494 3.44111084 -1.61031738 4.68690918 -1.43774414 5.97045898 C-0.8160064 11.59792991 -0.91738041 17.14083959 -1.06640625 22.79296875 C-1.09001724 23.86784042 -1.11362823 24.9427121 -1.13795471 26.05015564 C-1.21397566 29.45286334 -1.29826175 32.85530715 -1.3828125 36.2578125 C-1.43609495 38.57746143 -1.48883482 40.8971229 -1.54101562 43.21679688 C-1.66849589 48.87651616 -1.80717202 54.5358034 -1.9453125 60.1953125 C6.6346875 60.1953125 15.2146875 60.1953125 24.0546875 60.1953125 C24.0546875 60.5253125 24.0546875 60.8553125 24.0546875 61.1953125 C19.57553422 61.22417588 15.09640459 61.24206437 10.6171875 61.2578125 C9.33779297 61.26619141 8.05839844 61.27457031 6.74023438 61.28320312 C5.52529297 61.28642578 4.31035156 61.28964844 3.05859375 61.29296875 C1.93267822 61.29820557 0.8067627 61.30344238 -0.35327148 61.30883789 C-2.9453125 61.1953125 -2.9453125 61.1953125 -3.9453125 60.1953125 C-4.04954186 58.3956759 -4.08385352 56.5919465 -4.09057617 54.78930664 C-4.09695602 53.63463394 -4.10333588 52.47996124 -4.10990906 51.29029846 C-4.11102188 50.03305466 -4.1121347 48.77581085 -4.11328125 47.48046875 C-4.11660965 46.19925644 -4.11993805 44.91804413 -4.12336731 43.5980072 C-4.12936442 40.8818172 -4.13120663 38.16565905 -4.13061523 35.44946289 C-4.1305136 31.96440658 -4.14416466 28.47955395 -4.16138744 24.99454594 C-4.17516316 21.67735017 -4.17459574 18.3601928 -4.17578125 15.04296875 C-4.18296677 13.78774918 -4.19015228 12.5325296 -4.19755554 11.23927307 C-4.19447891 10.08144821 -4.19140228 8.92362335 -4.18823242 7.73071289 C-4.18965744 6.70780655 -4.19108246 5.68490021 -4.19255066 4.6309967 C-3.88326329 1.58403029 -3.1665543 0.31792714 0 0 Z " fill="#D1ECE0" transform="translate(223.9453125,114.8046875)"/>
<path d="M0 0 C8.91 0 17.82 0 27 0 C27 1.32 27 2.64 27 4 C24.36 4 21.72 4 19 4 C19 3.34 19 2.68 19 2 C16.03 2 13.06 2 10 2 C10.33 2.99 10.66 3.98 11 5 C11.06068783 6.91791768 11.05854455 8.83806741 11.02172852 10.7565918 C10.99158409 12.52808846 10.99158409 12.52808846 10.96083069 14.33537292 C10.92027809 16.24797661 10.92027809 16.24797661 10.87890625 18.19921875 C10.85529526 19.50454056 10.83168427 20.80986237 10.80735779 22.15473938 C10.74458225 25.62197729 10.67549728 29.08906188 10.60510254 32.55615234 C10.53435999 36.09530669 10.46957849 39.63456958 10.40429688 43.17382812 C10.2753688 50.11600339 10.13977559 57.05803491 10 64 C9.67 64 9.34 64 9 64 C8.67 44.53 8.34 25.06 8 5 C5.36 4.67 2.72 4.34 0 4 C0 2.68 0 1.36 0 0 Z " fill="#7ABA9D" transform="translate(203,111)"/>
<path d="M0 0 C0.66 0 1.32 0 2 0 C1.67 2.31 1.34 4.62 1 7 C3.64 7 6.28 7 9 7 C9 8.65 9 10.3 9 12 C1.41 12 -6.18 12 -14 12 C-14 10.68 -14 9.36 -14 8 C-12.80375 7.79375 -11.6075 7.5875 -10.375 7.375 C-5.46702105 6.19151571 -3.34702003 3.66578384 0 0 Z " fill="#7BBFA0" transform="translate(137,169)"/>
<path d="M0 0 C15.27985782 5.70266122 32.57267258 19.95445431 41 34 C40.01 33.67 39.02 33.34 38 33 C37.34 33.66 36.68 34.32 36 35 C35.65710938 34.51273438 35.31421875 34.02546875 34.9609375 33.5234375 C26.00328565 21.38868745 15.12086929 11.5907952 2.7890625 3.01171875 C1.86867187 2.34785156 0.94828125 1.68398438 0 1 C0 0.67 0 0.34 0 0 Z " fill="#E5FAF2" transform="translate(219,33)"/>
<path d="M0 0 C10.3542118 3.03274251 20.19605402 10.64495356 28 18 C28 18.66 28 19.32 28 20 C28.57234375 20.23847656 29.1446875 20.47695313 29.734375 20.72265625 C32.47339337 22.26689591 34.16670213 24.08800296 36.25 26.4375 C36.95640625 27.21996094 37.6628125 28.00242187 38.390625 28.80859375 C40 31 40 31 40 34 C36.8319934 32.63153062 35.08547731 31.18085148 32.9375 28.5 C24.26234972 18.33925316 14.16535741 11.11517874 3 4 C2.01 3.34 1.02 2.68 0 2 C0 1.34 0 0.68 0 0 Z " fill="#79BB9C" transform="translate(220,31)"/>
<path d="M0 0 C0.66 0.99 1.32 1.98 2 3 C1.2421875 5.94140625 1.2421875 5.94140625 -0.125 9.5625 C-2.58953498 16.33764776 -4.26167487 23.11420352 -5.65478516 30.18383789 C-6.79965527 35.79965527 -6.79965527 35.79965527 -9 38 C-9.45974503 39.92901141 -9.45974503 39.92901141 -9.6328125 42.1328125 C-9.75849609 43.34130859 -9.75849609 43.34130859 -9.88671875 44.57421875 C-9.96535156 45.41597656 -10.04398438 46.25773437 -10.125 47.125 C-10.21136719 47.97449219 -10.29773438 48.82398438 -10.38671875 49.69921875 C-10.59902557 51.79869727 -10.80053603 53.89926242 -11 56 C-11.33 56 -11.66 56 -12 56 C-12.38103216 43.93398176 -11.51171627 32.81104675 -9 21 C-8.34 21 -7.68 21 -7 21 C-6.66226562 19.90300781 -6.32453125 18.80601563 -5.9765625 17.67578125 C-5.52614898 16.22132093 -5.07562216 14.76689569 -4.625 13.3125 C-4.40328125 12.59126953 -4.1815625 11.87003906 -3.953125 11.12695312 C-2.77947281 7.3471027 -1.54096768 3.65079726 0 0 Z " fill="#9BCBB5" transform="translate(24,96)"/>
<path d="M0 0 C3.21465714 4.82198572 2.38108053 10.07800377 2.375 15.75 C2.37628906 16.96598877 2.37757813 18.18197754 2.37890625 19.43481445 C2.27208294 28.54089498 1.20263478 36.46440642 -2 45 C-2.66 45 -3.32 45 -4 45 C-4.17009063 40.49259821 -3.97493427 36.48273715 -3.0625 32.0625 C-1.82624004 25.50878646 -1.3303269 18.9595263 -0.875 12.3125 C-0.78863281 11.12205078 -0.70226562 9.93160156 -0.61328125 8.70507812 C-0.40354461 5.80372125 -0.19921676 2.90209489 0 0 Z " fill="#75BB99" transform="translate(280,138)"/>
<path d="M0 0 C0 4.16743727 -2.2779799 5.8824673 -5 8.75 C-5.49604736 9.28206055 -5.99209473 9.81412109 -6.50317383 10.36230469 C-10.43107849 14.523569 -14.5593515 18.38640638 -19 22 C-20.125 20.25 -20.125 20.25 -21 18 C-19.88424268 14.16362896 -17.04296268 11.96393425 -14.125 9.375 C-13.26132813 8.59898437 -12.39765625 7.82296875 -11.5078125 7.0234375 C-9.36845321 5.29728779 -7.50660047 4.08425043 -5 3 C-5.66 4.32 -6.32 5.64 -7 7 C-4.69 4.69 -2.38 2.38 0 0 Z " fill="#EEF9F3" transform="translate(243,233)"/>
<path d="M0 0 C0.66 0 1.32 0 2 0 C2 0.99 2 1.98 2 3 C2.99 3.33 3.98 3.66 5 4 C4.34 5.65 3.68 7.3 3 9 C2.34 9 1.68 9 1 9 C0.20640264 11.3535311 -0.58491783 13.70778883 -1.375 16.0625 C-1.59671875 16.71927734 -1.8184375 17.37605469 -2.046875 18.05273438 C-3.48306019 22.34016957 -4.78775047 26.6438323 -6 31 C-6.33 31 -6.66 31 -7 31 C-6.67 27.7 -6.34 24.4 -6 21 C-6.66 21.66 -7.32 22.32 -8 23 C-6.58257847 14.77895515 -3.41386718 7.54700825 0 0 Z " fill="#7ABC9D" transform="translate(23,89)"/>
<path d="M0 0 C3.65670322 0.55999689 3.65670322 0.55999689 5.17260742 2.50292969 C5.48045166 3.13618164 5.7882959 3.76943359 6.10546875 4.421875 C6.44900391 5.11796875 6.79253906 5.8140625 7.14648438 6.53125 C7.49001953 7.2634375 7.83355469 7.995625 8.1875 8.75 C8.54263672 9.46671875 8.89777344 10.1834375 9.26367188 10.921875 C11.03827277 14.58556718 12.46209098 17.92152567 13 22 C10.734375 21.94921875 10.734375 21.94921875 8 21 C6.47343294 18.56290181 5.3560658 16.42886642 4.25 13.8125 C3.79560547 12.8215332 3.79560547 12.8215332 3.33203125 11.81054688 C1.59243687 7.89452664 0.50718989 4.29109341 0 0 Z " fill="#71BC99" transform="translate(261,80)"/>
<path d="M0 0 C1.47949219 1.0847168 1.47949219 1.0847168 3 3 C3.35644531 5.99926758 3.35644531 5.99926758 3.328125 9.64453125 C3.32296875 10.96130859 3.3178125 12.27808594 3.3125 13.63476562 C3.3021875 14.32094971 3.291875 15.00713379 3.28125 15.71411133 C3.2502663 17.79461818 3.24029242 19.87436398 3.234375 21.95507812 C3.19460842 27.73473339 3.08472592 33.3019282 2 39 C0.515 39.495 0.515 39.495 -1 40 C-0.9278125 39.29101562 -0.855625 38.58203125 -0.78125 37.8515625 C0.31708775 25.25118776 0.09264732 12.63709396 0 0 Z " fill="#C5F2DE" transform="translate(276,131)"/>
<path d="M0 0 C0.99 0.66 1.98 1.32 3 2 C2.67 2.99 2.34 3.98 2 5 C3.13888672 5.81404297 3.13888672 5.81404297 4.30078125 6.64453125 C5.29464844 7.35996094 6.28851563 8.07539062 7.3125 8.8125 C8.29863281 9.52019531 9.28476563 10.22789063 10.30078125 10.95703125 C14.32038217 13.99936306 14.32038217 13.99936306 16 16 C16 17.66666667 16 19.33333333 16 21 C14.2925002 19.71937515 12.62626404 18.38232443 11 17 C11 16.34 11 15.68 11 15 C8.525 14.01 8.525 14.01 6 13 C6 12.34 6 11.68 6 11 C4.9790625 10.6596875 4.9790625 10.6596875 3.9375 10.3125 C0.20385676 8.64427643 -2.72163421 6.44270392 -6 4 C-5.01 3.67 -4.02 3.34 -3 3 C-3.66 2.34 -4.32 1.68 -5 1 C-3.35 1.33 -1.7 1.66 0 2 C0 1.34 0 0.68 0 0 Z " fill="#85CAA9" transform="translate(218,29)"/>
<path d="M0 0 C14.37687724 0.55402224 27.98309957 3.88030114 41 10 C36.93596716 11.35467761 34.24573086 9.92138304 30.375 8.5625 C25.08634649 6.79332088 20.71090296 5.63364115 15.09375 6.01171875 C10.32278054 5.98501556 4.79649949 4.61214256 1.2109375 1.39453125 C0.81132812 0.93433594 0.41171875 0.47414063 0 0 Z " fill="#81BFA3" transform="translate(170,12)"/>
<path d="M0 0 C0.66 0.33 1.32 0.66 2 1 C2 1.66 2 2.32 2 3 C4.64 3.33 7.28 3.66 10 4 C10 4.99 10 5.98 10 7 C3.07 7 -3.86 7 -11 7 C-11 6.01 -11 5.02 -11 4 C-9.39125 3.566875 -9.39125 3.566875 -7.75 3.125 C-4.16546862 2.17357654 -4.16546862 2.17357654 -1.6875 0.8125 C-1.130625 0.544375 -0.57375 0.27625 0 0 Z " fill="#6CB995" transform="translate(56,173)"/>
<path d="M0 0 C2.125 -0.3125 2.125 -0.3125 5 0 C5.804375 0.70125 6.60875 1.4025 7.4375 2.125 C12.02124648 6.10979041 17.49009765 8.58357473 22.875 11.3125 C23.94492188 11.86228516 25.01484375 12.41207031 26.1171875 12.97851562 C28.74142215 14.32577895 31.36899571 15.66601902 34 17 C33.01 17.66 32.02 18.32 31 19 C7.33962264 7.16981132 7.33962264 7.16981132 0 1 C0 0.67 0 0.34 0 0 Z " fill="#E4F5ED" transform="translate(70,257)"/>
<path d="M0 0 C1.02804642 3.17759803 0.92333644 5.16796229 0.0625 8.375 C-0.6308743 11.16674389 -0.99563485 13.21825757 -0.9375 16.125 C-1.02184155 20.00471114 -2.32704814 22.51468363 -4 26 C-4.33 25.01 -4.66 24.02 -5 23 C-5.99 23.33 -6.98 23.66 -8 24 C-7.40984815 18.49191603 -6.43336231 13.35121931 -5 8 C-4.67 8.99 -4.34 9.98 -4 11 C-3.34 11 -2.68 11 -2 11 C-1.93941406 10.37351563 -1.87882812 9.74703125 -1.81640625 9.1015625 C-1.73261719 8.28429687 -1.64882813 7.46703125 -1.5625 6.625 C-1.48128906 5.81289062 -1.40007812 5.00078125 -1.31640625 4.1640625 C-1 2 -1 2 0 0 Z " fill="#80C1A3" transform="translate(280,172)"/>
<path d="M0 0 C2.02075566 -0.02734857 4.04162221 -0.0465517 6.0625 -0.0625 C7.18785156 -0.07410156 8.31320313 -0.08570313 9.47265625 -0.09765625 C13 0 13 0 16.26757812 0.5 C19.98179394 0.99756109 23.50109922 1.11372919 27.24609375 1.09765625 C27.90207047 1.0962413 28.55804718 1.09482635 29.23390198 1.09336853 C31.30181702 1.08783031 33.36961842 1.07529002 35.4375 1.0625 C36.85090988 1.05747699 38.26432148 1.0529155 39.67773438 1.04882812 C43.11852568 1.03788126 46.55925172 1.02066038 50 1 C50 1.33 50 1.66 50 2 C41.2350735 3.98718981 33.05054166 5.50803456 24 5 C24 4.67 24 4.34 24 4 C12.12 2.515 12.12 2.515 0 1 C0 0.67 0 0.34 0 0 Z " fill="#7EBFA1" transform="translate(131,283)"/>
<path d="M0 0 C0.33 0 0.66 0 1 0 C1.33337803 4.77841845 0.55194066 7.01897257 -2 11 C-2.70670728 13.69254991 -2.70670728 13.69254991 -3 16 C-3.66 16 -4.32 16 -5 16 C-6.58455866 17.78723941 -6.58455866 17.78723941 -8.125 20 C-8.93324219 21.11375 -8.93324219 21.11375 -9.7578125 22.25 C-10.16773438 22.8275 -10.57765625 23.405 -11 24 C-12.32 23.67 -13.64 23.34 -15 23 C-14.48050781 22.39414063 -13.96101562 21.78828125 -13.42578125 21.1640625 C-9.18353509 16.06709392 -5.77684173 11.16074265 -3.0078125 5.12890625 C-2 3 -2 3 0 0 Z " fill="#85C6A8" transform="translate(263,213)"/>
<path d="M0 0 C2.40024961 3.60037442 2.12816029 4.76261894 1.7578125 8.98046875 C1.66113281 10.14384766 1.56445312 11.30722656 1.46484375 12.50585938 C1.35269531 13.72080078 1.24054687 14.93574219 1.125 16.1875 C1.02058594 17.41404297 0.91617187 18.64058594 0.80859375 19.90429688 C0.54896776 22.93720048 0.27904091 25.9688311 0 29 C-0.33 29 -0.66 29 -1 29 C-1.33 32.3 -1.66 35.6 -2 39 C-2.33 39 -2.66 39 -3 39 C-3.34321078 25.60949926 -3.18518194 13.06303782 0 0 Z " fill="#EBF5F2" transform="translate(12,120)"/>
<path d="M0 0 C0.78773804 0.00141495 1.57547607 0.0028299 2.38708496 0.00428772 C4.87268064 0.00983013 7.35818211 0.0223714 9.84375 0.03515625 C11.54166535 0.04017871 13.23958214 0.0447403 14.9375 0.04882812 C19.07295229 0.05978061 23.20833524 0.07700459 27.34375 0.09765625 C27.34375 0.42765625 27.34375 0.75765625 27.34375 1.09765625 C26.36092041 1.1227124 25.37809082 1.14776855 24.36547852 1.17358398 C20.68080031 1.26853744 16.99627255 1.36853463 13.31176758 1.4699707 C11.72423855 1.51299011 10.136673 1.55468462 8.54907227 1.5949707 C-4.97029455 0.73493177 -4.97029455 0.73493177 -16.65625 4.09765625 C-18.27309194 4.46854472 -19.90024077 4.79509222 -21.53125 5.09765625 C-24.35362213 5.62427962 -26.92643179 6.18771685 -29.65625 7.09765625 C-32.34375 6.66015625 -32.34375 6.66015625 -34.65625 6.09765625 C-34.65625 5.76765625 -34.65625 5.43765625 -34.65625 5.09765625 C-31.82393453 4.44707096 -28.99052799 3.80208912 -26.15625 3.16015625 C-25.36476563 2.97775391 -24.57328125 2.79535156 -23.7578125 2.60742188 C-22.57832031 2.34155273 -22.57832031 2.34155273 -21.375 2.0703125 C-20.66279297 1.90797119 -19.95058594 1.74562988 -19.21679688 1.57836914 C-12.76653491 0.36740749 -6.54276436 -0.0452568 0 0 Z " fill="#96CCB3" transform="translate(142.65625,10.90234375)"/>
<path d="M0 0 C2.21736634 1.10868317 4.03617993 2.49440461 6 4 C4.89205078 4.45439453 4.89205078 4.45439453 3.76171875 4.91796875 C-3.22734237 7.80417569 -10.13728685 10.8253197 -17 14 C-17 13.34 -17 12.68 -17 12 C-15.71086513 11.32845067 -14.41859796 10.66291141 -13.125 10 C-12.40570313 9.62875 -11.68640625 9.2575 -10.9453125 8.875 C-9 8 -9 8 -7 8 C-7.66 6.68 -8.32 5.36 -9 4 C-7.54618103 3.30300448 -6.08677047 2.61766134 -4.625 1.9375 C-3.81289062 1.55464844 -3.00078125 1.17179687 -2.1640625 0.77734375 C-1.44992188 0.52082031 -0.73578125 0.26429687 0 0 Z " fill="#75BF9C" transform="translate(113,22)"/>
<path d="M0 0 C1.65 0 3.3 0 5 0 C5 0.33 5 0.66 5 1 C10.61 1 16.22 1 22 1 C22 0.67 22 0.34 22 0 C23.65 0 25.3 0 27 0 C27 1.32 27 2.64 27 4 C18.09 4 9.18 4 0 4 C0 2.68 0 1.36 0 0 Z " fill="#81BDA1" transform="translate(91,177)"/>
<path d="M0 0 C1.20849609 0.09990234 2.41699219 0.19980469 3.66210938 0.30273438 C6.62956177 0.54904465 9.59622091 0.80250107 12.5625 1.0625 C12.2325 2.0525 11.9025 3.0425 11.5625 4.0625 C6.9425 4.0625 2.3225 4.0625 -2.4375 4.0625 C-2.4375 3.7325 -2.4375 3.4025 -2.4375 3.0625 C-8.3775 2.4025 -14.3175 1.7425 -20.4375 1.0625 C-20.4375 0.7325 -20.4375 0.4025 -20.4375 0.0625 C-13.56512396 -1.38059805 -6.94906835 -0.61036552 0 0 Z " fill="#C9E9DB" transform="translate(148.4375,284.9375)"/>
<path d="M0 0 C0.99 1.485 0.99 1.485 2 3 C2.66 2.67 3.32 2.34 4 2 C7.44419134 15.6332574 7.44419134 15.6332574 7 22 C6.01 22 5.02 22 4 22 C3.32810344 19.08444885 2.66230692 16.16773049 2 13.25 C1.80921875 12.425 1.6184375 11.6 1.421875 10.75 C1.24140625 9.95078125 1.0609375 9.1515625 0.875 8.328125 C0.70742188 7.5949707 0.53984375 6.86181641 0.3671875 6.10644531 C0 4 0 4 0 0 Z " fill="#92D7B8" transform="translate(271,108)"/>
<path d="M0 0 C0.33 0 0.66 0 1 0 C1.33 1.65 1.66 3.3 2 5 C2.99 4.01 3.98 3.02 5 2 C5.84681133 7.08086796 6.09038099 11.84828377 6 17 C5.67 17 5.34 17 5 17 C4.67 20.96 4.34 24.92 4 29 C3.67 29 3.34 29 3 29 C2.98541748 28.43490723 2.97083496 27.86981445 2.95581055 27.28759766 C2.88143942 24.73269981 2.78474758 22.17912502 2.6875 19.625 C2.66494141 18.73554688 2.64238281 17.84609375 2.61914062 16.9296875 C2.58369141 16.07890625 2.54824219 15.228125 2.51171875 14.3515625 C2.48553467 13.56604004 2.45935059 12.78051758 2.43237305 11.97119141 C2.15110403 9.59959844 2.15110403 9.59959844 -1 8 C-0.67 5.36 -0.34 2.72 0 0 Z " fill="#8FC8AC" transform="translate(276,124)"/>
<path d="M0 0 C5.12583611 -0.10251672 9.94997778 -0.03590199 15 1 C14.67 1.99 14.34 2.98 14 4 C13.34 4 12.68 4 12 4 C12 4.99 12 5.98 12 7 C10.68 7 9.36 7 8 7 C7.67 6.01 7.34 5.02 7 4 C4.69 3.67 2.38 3.34 0 3 C0 2.01 0 1.02 0 0 Z " fill="#66BB93" transform="translate(95,112)"/>
<path d="M0 0 C-0.95336021 1.31611677 -1.91285774 2.62778961 -2.875 3.9375 C-3.40867188 4.66839844 -3.94234375 5.39929688 -4.4921875 6.15234375 C-6 8 -6 8 -8 9 C-8.66 8.34 -9.32 7.68 -10 7 C-9.34 6.01 -8.68 5.02 -8 4 C-9.98 5.98 -11.96 7.96 -14 10 C-14.66 9.67 -15.32 9.34 -16 9 C-14.73657512 7.51450044 -13.4639897 6.03678811 -12.1875 4.5625 C-11.47980469 3.73878906 -10.77210938 2.91507813 -10.04296875 2.06640625 C-6.672414 -1.34281643 -4.40295205 -1.07098834 0 0 Z " fill="#7CBDA0" transform="translate(250,231)"/>
<path d="M0 0 C0.66 0.33 1.32 0.66 2 1 C1.0821875 1.58007812 0.164375 2.16015625 -0.78125 2.7578125 C-7.37950966 6.95025071 -13.82952815 11.18703196 -20 16 C-20 15.34 -20 14.68 -20 14 C-20.66 13.67 -21.32 13.34 -22 13 C-6.23616236 2.63837638 -6.23616236 2.63837638 0 0 Z " fill="#D7F8EA" transform="translate(91,30)"/>
<path d="M0 0 C0.33 0 0.66 0 1 0 C0.64707989 8.64654269 -0.96725651 16.87453632 -4 25 C-4.66 25.33 -5.32 25.66 -6 26 C-5.31781795 20.63492244 -4.25856493 15.44520061 -3 10.1875 C-2.82210938 9.42501953 -2.64421875 8.66253906 -2.4609375 7.87695312 C-1.12991071 2.25982143 -1.12991071 2.25982143 0 0 Z " fill="#DFFBF0" transform="translate(276,169)"/>
<path d="M0 0 C2 2 2 2 2.08203125 4.06640625 C1.46143107 9.81370361 0.75635863 15.82888275 -2 21 C-2.99 21.33 -3.98 21.66 -5 22 C-4.35482025 19.08318736 -3.7088818 16.16654627 -3.0625 13.25 C-2.88009766 12.425 -2.69769531 11.6 -2.50976562 10.75 C-2.33251953 9.95078125 -2.15527344 9.1515625 -1.97265625 8.328125 C-1.72914429 7.22839355 -1.72914429 7.22839355 -1.48071289 6.10644531 C-1.01446454 4.06338247 -0.51579351 2.03106238 0 0 Z " fill="#89BFA7" transform="translate(285,164)"/>
<path d="M0 0 C8.20431878 3.01171196 15.50777233 8.20963478 22 14 C21.01 14.66 20.02 15.32 19 16 C18.46632812 15.50371094 17.93265625 15.00742187 17.3828125 14.49609375 C12.45818638 10.00599346 7.41281406 6.05057134 1.87109375 2.34765625 C1.25363281 1.90292969 0.63617188 1.45820312 0 1 C0 0.67 0 0.34 0 0 Z " fill="#E0FAED" transform="translate(219,33)"/>
<path d="M0 0 C0.33 0 0.66 0 1 0 C2.21074074 7.80255144 1.72526532 15.15597666 1 23 C0.34 23 -0.32 23 -1 23 C-2.5960654 15.17927953 -1.22518358 7.7763718 0 0 Z " fill="#C8E8DA" transform="translate(15,127)"/>
<path d="M0 0 C-1.46666667 5.5 -1.46666667 5.5 -4 7.875 C-6 9 -6 9 -8 9 C-9.57111317 10.32771766 -9.57111317 10.32771766 -11.125 12 C-11.66382813 12.556875 -12.20265625 13.11375 -12.7578125 13.6875 C-13.37269531 14.3371875 -13.37269531 14.3371875 -14 15 C-14.99 14.67 -15.98 14.34 -17 14 C-16.33613281 13.40832031 -15.67226562 12.81664062 -14.98828125 12.20703125 C-9.35973419 7.21320393 -9.35973419 7.21320393 -4 1.9375 C-2 0 -2 0 0 0 Z " fill="#78BD9D" transform="translate(242,239)"/>
<path d="M0 0 C1.32 0 2.64 0 4 0 C3.03644647 9.41002278 3.03644647 9.41002278 2 14 C1.67 13.01 1.34 12.02 1 11 C0.01 11 -0.98 11 -2 11 C-1.34 7.37 -0.68 3.74 0 0 Z " fill="#79BC9C" transform="translate(254,163)"/>
<path d="M0 0 C0.99 0 1.98 0 3 0 C4.72330907 7.09326321 5.2494783 13.70968976 5 21 C2.56198667 17.05677844 2.10550869 12.74486471 1.375 8.25 C1.17390625 7.06083984 1.17390625 7.06083984 0.96875 5.84765625 C0.64012702 3.89939142 0.31929295 1.94981561 0 0 Z " fill="#76BB9A" transform="translate(275,112)"/>
<path d="M0 0 C1.5625 1.1875 1.5625 1.1875 3 3 C2.84946418 6.01071639 2.41319987 7.52068815 0.4375 9.8125 C-0.036875 10.204375 -0.51125 10.59625 -1 11 C-1.66 10.67 -2.32 10.34 -3 10 C-4.26229508 5.52459016 -4.26229508 5.52459016 -3 3 C-2.01 2.67 -1.02 2.34 0 2 C0 1.34 0 0.68 0 0 Z " fill="#6DBB97" transform="translate(28,82)"/>
<path d="M0 0 C4.56454251 0.54339792 7.9728176 1.79463821 12 4 C12 4.66 12 5.32 12 6 C11.01 6 10.02 6 9 6 C9.33 6.66 9.66 7.32 10 8 C5.56983933 6.60766379 3.08449737 4.43701135 0 1 C0 0.67 0 0.34 0 0 Z " fill="#6DBB97" transform="translate(206,25)"/>
<path d="M0 0 C0.66 0.99 1.32 1.98 2 3 C0.3718356 6.75730247 -2.01401917 9.616823 -4.625 12.75 C-5.85089844 14.22726563 -5.85089844 14.22726563 -7.1015625 15.734375 C-7.72804688 16.48203125 -8.35453125 17.2296875 -9 18 C-9.66 17.67 -10.32 17.34 -11 17 C-10.54109375 16.35933594 -10.0821875 15.71867188 -9.609375 15.05859375 C-6.1323166 10.15711017 -2.86988604 5.28059031 0 0 Z " fill="#D6F7E8" transform="translate(267,216)"/>
<path d="M0 0 C1.02804642 3.17759803 0.92333644 5.16796229 0.0625 8.375 C-0.6308743 11.16674389 -0.99563485 13.21825757 -0.9375 16.125 C-1.02184155 20.00471114 -2.32704814 22.51468363 -4 26 C-6.61681942 18.14954173 -2.27287098 7.69745638 0 0 Z " fill="#B0E1CA" transform="translate(280,172)"/>
<path d="M0 0 C2.47566696 3.71350044 2.75633174 7.11427284 3.25 11.4375 C3.353125 12.20126953 3.45625 12.96503906 3.5625 13.75195312 C3.65015625 14.49251953 3.7378125 15.23308594 3.828125 15.99609375 C3.9504248 17.00434204 3.9504248 17.00434204 4.07519531 18.03295898 C3.98322693 20.43876837 3.19302297 21.93468704 2 24 C1.46905569 20.37640521 0.95196512 16.75096814 0.4375 13.125 C0.21030273 11.57619141 0.21030273 11.57619141 -0.02148438 9.99609375 C-0.16005859 9.00996094 -0.29863281 8.02382812 -0.44140625 7.0078125 C-0.57232666 6.09660645 -0.70324707 5.18540039 -0.83813477 4.24658203 C-1 2 -1 2 0 0 Z " fill="#92C1AB" transform="translate(284,114)"/>
<path d="M0 0 C0 4.07063858 -1.58126053 5.57277449 -4.19921875 8.546875 C-6 10 -6 10 -9.875 10.4375 C-10.90625 10.293125 -11.9375 10.14875 -13 10 C-11.02 7.69 -9.04 5.38 -7 3 C-6.34 3.33 -5.68 3.66 -5 4 C-5.99 5.485 -5.99 5.485 -7 7 C-4.69 4.69 -2.38 2.38 0 0 Z " fill="#DDF5EC" transform="translate(243,233)"/>
<path d="M0 0 C1.5625 1.25 1.5625 1.25 3 3 C2.67751743 4.33599921 2.34227417 5.66893378 2 7 C2.64252365 9.0078864 3.30741771 11.00882592 4 13 C3.67 13.66 3.34 14.32 3 15 C2.34 14.67 1.68 14.34 1 14 C0.2863409 11.68060793 -0.3747292 9.34476551 -1 7 C-1.64199649 5.32367583 -2.29894157 3.65249487 -3 2 C-2.01 2.33 -1.02 2.66 0 3 C0 2.01 0 1.02 0 0 Z " fill="#8DD1B1" transform="translate(260,75)"/>
<path d="M0 0 C0.33 0.99 0.66 1.98 1 3 C-2.96 6.96 -6.92 10.92 -11 15 C-11.66 14.67 -12.32 14.34 -13 14 C-8.71 9.38 -4.42 4.76 0 0 Z " fill="#E2F9EF" transform="translate(109,117)"/>
<path d="M0 0 C2.3192061 3.47880915 2.18399386 4.51913931 1.8125 8.5625 C1.73644531 9.53316406 1.66039062 10.50382813 1.58203125 11.50390625 C1 14 1 14 -2 16 C-2.2396943 10.36718401 -1.38529821 5.45461169 0 0 Z " fill="#E4F2EB" transform="translate(12,120)"/>
<path d="M0 0 C0.99 0 1.98 0 3 0 C2.01 3.3 1.02 6.6 0 10 C-0.66 10 -1.32 10 -2 10 C-2.66 11.32 -3.32 12.64 -4 14 C-3.00956295 9.16371695 -2.04301154 4.52381127 0 0 Z " fill="#99CCB4" transform="translate(19,98)"/>
<path d="M0 0 C0.66 0.66 1.32 1.32 2 2 C1.6442194 5.37991574 0.64284201 8.04288438 -1 11 C-1.99 10.67 -2.98 10.34 -4 10 C-2.8905928 6.51329166 -1.73662334 3.22515763 0 0 Z " fill="#7CC3A3" transform="translate(268,203)"/>
<path d="M0 0 C6.435 2.97 6.435 2.97 13 6 C12.01 6.66 11.02 7.32 10 8 C6 6 2 4 -2 2 C-1.34 1.34 -0.68 0.68 0 0 Z " fill="#BFE5D3" transform="translate(91,268)"/>
<path d="M0 0 C-0.99 0.495 -0.99 0.495 -2 1 C-1.34 1.66 -0.68 2.32 0 3 C-3.3 3.66 -6.6 4.32 -10 5 C-9.67 3.68 -9.34 2.36 -9 1 C-5.3931275 -0.64661571 -3.8148779 -1.27162597 0 0 Z " fill="#EEF9F5" transform="translate(191,269)"/>
<path d="M0 0 C2.92746298 2.44568622 2.92746298 2.44568622 3.2487793 4.90112305 C3.19117432 5.59761963 3.13356934 6.29411621 3.07421875 7.01171875 C3.01943359 7.76904297 2.96464844 8.52636719 2.90820312 9.30664062 C2.83537109 10.09232422 2.76253906 10.87800781 2.6875 11.6875 C2.62626953 12.48478516 2.56503906 13.28207031 2.50195312 14.10351562 C2.34886031 16.07016953 2.17629291 18.03528989 2 20 C1.67 20 1.34 20 1 20 C0.202163 13.30386804 -0.12910853 6.74233419 0 0 Z " fill="#AFE5CB" transform="translate(276,131)"/>
<path d="M0 0 C-0.33 3.96 -0.66 7.92 -1 12 C-1.33 12 -1.66 12 -2 12 C-2.33 10.02 -2.66 8.04 -3 6 C-4.98 6.99 -4.98 6.99 -7 8 C-2.45945946 0 -2.45945946 0 0 0 Z " fill="#80BCA0" transform="translate(269,221)"/>
<path d="M0 0 C0.99 0 1.98 0 3 0 C2.6875 1.875 2.6875 1.875 2 4 C1.01 4.66 0.02 5.32 -1 6 C-1.33 6.99 -1.66 7.98 -2 9 C-2.66 9 -3.32 9 -4 9 C-3.47557578 5.2241456 -2.67345333 2.77627845 0 0 Z " fill="#69BD95" transform="translate(261,205)"/>
<path d="M0 0 C0.33 0.66 0.66 1.32 1 2 C-1.63886654 6.2026393 -4.36440339 9.56638098 -8 13 C-8.99 12.67 -9.98 12.34 -11 12 C-10.45730469 11.46890625 -9.91460937 10.9378125 -9.35546875 10.390625 C-8.64003906 9.68421875 -7.92460937 8.9778125 -7.1875 8.25 C-6.47980469 7.55390625 -5.77210938 6.8578125 -5.04296875 6.140625 C-3.17724121 4.18571355 -1.56830358 2.19661447 0 0 Z " fill="#E2F9EE" transform="translate(188,117)"/>
<path d="M0 0 C0.66 0.66 1.32 1.32 2 2 C0.92643323 3.15498897 -0.15929788 4.29867867 -1.25 5.4375 C-1.85328125 6.07558594 -2.4565625 6.71367187 -3.078125 7.37109375 C-5.10048016 9.08516306 -6.41270605 9.59358878 -9 10 C-8.34 9.01 -7.68 8.02 -7 7 C-6.34 7 -5.68 7 -5 7 C-4.731875 6.401875 -4.46375 5.80375 -4.1875 5.1875 C-3.01506533 3.02775192 -1.80630718 1.64209744 0 0 Z " fill="#E5F8EF" transform="translate(259,245)"/>
<path d="M0 0 C0.99 0.66 1.98 1.32 3 2 C2.01 4.97 1.02 7.94 0 11 C-0.99 10.67 -1.98 10.34 -3 10 C-2.01 6.7 -1.02 3.4 0 0 Z " fill="#CDEEDE" transform="translate(269,192)"/>
<path d="M0 0 C1.32 0.66 2.64 1.32 4 2 C2.60922699 2.82113177 1.21211107 3.63152495 -0.1875 4.4375 C-0.96480469 4.88996094 -1.74210937 5.34242187 -2.54296875 5.80859375 C-5.04931977 7.02391499 -7.25790365 7.57626575 -10 8 C-7.09492679 5.57910566 -4.36852957 3.68426478 -1 2 C-0.67 1.34 -0.34 0.68 0 0 Z " fill="#79C3A0" transform="translate(93,29)"/>
<path d="M0 0 C0 3 0 3 -1.64453125 4.82421875 C-2.71767578 5.74654297 -2.71767578 5.74654297 -3.8125 6.6875 C-4.52019531 7.31011719 -5.22789062 7.93273437 -5.95703125 8.57421875 C-8 10 -8 10 -11 10 C-9.73657512 8.51450044 -8.4639897 7.03678811 -7.1875 5.5625 C-6.47980469 4.73878906 -5.77210938 3.91507813 -5.04296875 3.06640625 C-3 1 -3 1 0 0 Z " fill="#A6CDBB" transform="translate(245,230)"/>
<path d="M0 0 C3.25597758 0.24118352 4.7276304 1.52224212 6.8125 3.875 C7.534375 4.90625 8.25625 5.9375 9 7 C8.67 7.99 8.34 8.98 8 10 C6.66370254 8.52351062 5.33103329 7.0437367 4 5.5625 C3.2575 4.73878906 2.515 3.91507813 1.75 3.06640625 C0 1 0 1 0 0 Z " fill="#C2E6D6" transform="translate(252,53)"/>
<path d="M0 0 C-1.29299694 2.88437779 -2.65941363 4.87219421 -5 7 C-5.66 6.67 -6.32 6.34 -7 6 C-4.84615385 0 -4.84615385 0 0 0 Z " fill="#6DB897" transform="translate(172,134)"/>
<path d="M0 0 C0.99 0.66 1.98 1.32 3 2 C2.67 2.66 2.34 3.32 2 4 C1.01 4 0.02 4 -1 4 C-1 4.66 -1 5.32 -1 6 C-3.475 5.01 -3.475 5.01 -6 4 C-5.01 3.67 -4.02 3.34 -3 3 C-3.66 2.34 -4.32 1.68 -5 1 C-3.35 1.33 -1.7 1.66 0 2 C0 1.34 0 0.68 0 0 Z " fill="#89D1AE" transform="translate(218,29)"/>
<path d="M0 0 C0.99 0.66 1.98 1.32 3 2 C-1.0188515 3.81242323 -4.61110675 5.33501617 -9 6 C-8.67 4.68 -8.34 3.36 -8 2 C-6.865625 1.855625 -5.73125 1.71125 -4.5625 1.5625 C-1.19222799 1.38828522 -1.19222799 1.38828522 0 0 Z " fill="#7CBD9F" transform="translate(230,266)"/>
<path d="M0 0 C0 3.90838866 -1.50567876 5.11594107 -4 8 C-5.32 7.67 -6.64 7.34 -8 7 C-5.42215154 4.35247996 -3.08351902 2.05567935 0 0 Z " fill="#92D3B4" transform="translate(256,229)"/>
<path d="M0 0 C2 1.8125 2 1.8125 4 4 C4 4.99 4 5.98 4 7 C1.36 7 -1.28 7 -4 7 C-3.34 6.5875 -2.68 6.175 -2 5.75 C-1.34 5.1725 -0.68 4.595 0 4 C0 2.68 0 1.36 0 0 Z " fill="#CFF0E1" transform="translate(95,170)"/>
<path d="M0 0 C2.29013653 3.4352048 2.17842973 4.985331 2 9 C1.01 8.67 0.02 8.34 -1 8 C-1.33 7.34 -1.66 6.68 -2 6 C-2.66 5.67 -3.32 5.34 -4 5 C-2.68 3.35 -1.36 1.7 0 0 Z " fill="#7BBFA0" transform="translate(58,168)"/>
<path d="M0 0 C1.65 0.33 3.3 0.66 5 1 C5 1.66 5 2.32 5 3 C4.01 3 3.02 3 2 3 C2 3.66 2 4.32 2 5 C0.68 5 -0.64 5 -2 5 C-1.34 3.35 -0.68 1.7 0 0 Z " fill="#63BD92" transform="translate(61,42)"/>
<path d="M0 0 C1.32 0 2.64 0 4 0 C3.67 2.97 3.34 5.94 3 9 C2.67 9 2.34 9 2 9 C2 7.35 2 5.7 2 4 C1.34 4 0.68 4 0 4 C0 2.68 0 1.36 0 0 Z " fill="#8AC1AA" transform="translate(254,163)"/>
<path d="M0 0 C1.98 0.99 1.98 0.99 4 2 C4.33 1.34 4.66 0.68 5 0 C5.66 1.32 6.32 2.64 7 4 C6.01 4.495 6.01 4.495 5 5 C5 5.99 5 6.98 5 8 C0 2.25 0 2.25 0 0 Z " fill="#82C9A7" transform="translate(248,64)"/>
<path d="M0 0 C1.875 0.25 1.875 0.25 4 1 C5.64872507 3.5164751 6.37312706 6.07459296 7 9 C3.20551875 6.64480474 1.79421631 4.0369867 0 0 Z " fill="#7CC3A1" transform="translate(232,45)"/>
<path d="M0 0 C4.81430721 -0.56638908 7.20307814 1.17438373 11 4 C9.4375 4.75 9.4375 4.75 7 5 C4.49713591 3.86915563 2.32992278 2.47860484 0 1 C0 0.67 0 0.34 0 0 Z " fill="#D6F0E5" transform="translate(80,264)"/>
<path d="M0 0 C2.64 0 5.28 0 8 0 C7.01 1.485 7.01 1.485 6 3 C2.875 3.1875 2.875 3.1875 0 3 C0 2.01 0 1.02 0 0 Z " fill="#71B696" transform="translate(95,112)"/>
<path d="M0 0 C1.32 0.66 2.64 1.32 4 2 C3.34 2 2.68 2 2 2 C2.33 2.99 2.66 3.98 3 5 C1.35 5 -0.3 5 -2 5 C-2 4.34 -2 3.68 -2 3 C-3.32 2.34 -4.64 1.68 -6 1 C-3.03 1.495 -3.03 1.495 0 2 C0 1.34 0 0.68 0 0 Z " fill="#85CFAB" transform="translate(198,21)"/>
<path d="M0 0 C0 0.33 0 0.66 0 1 C-5.02125926 1.77916092 -8.97703996 2.13016601 -14 1 C-14 0.67 -14 0.34 -14 0 C-9.20699867 -1.39151652 -4.84864218 -0.68662689 0 0 Z " fill="#E9F9F4" transform="translate(135,284)"/>
<path d="M0 0 C3.465 1.485 3.465 1.485 7 3 C7 4.65 7 6.3 7 8 C5.8274869 7.04882866 4.66212985 6.08882991 3.5 5.125 C2.8503125 4.59132812 2.200625 4.05765625 1.53125 3.5078125 C1.0259375 3.01023438 0.520625 2.51265625 0 2 C0 1.34 0 0.68 0 0 Z " fill="#CFDFD8" transform="translate(41,237)"/>
<path d="M0 0 C-0.33 1.32 -0.66 2.64 -1 4 C-2.32 4.33 -3.64 4.66 -5 5 C-4.625 3.0625 -4.625 3.0625 -4 1 C-2 0 -2 0 0 0 Z " fill="#69B996" transform="translate(96,129)"/>
<path d="M0 0 C0.33 0 0.66 0 1 0 C1.08131463 1.43655854 1.13933559 2.8744483 1.1875 4.3125 C1.23970703 5.51326172 1.23970703 5.51326172 1.29296875 6.73828125 C0.93801608 9.47851584 0.10633718 10.29171079 -2 12 C-1 3.42857143 -1 3.42857143 0 0 Z " fill="#86C3A7" transform="translate(26,114)"/>
<path d="M0 0 C0.99 0 1.98 0 3 0 C2.39009109 3.55780196 1.4216319 6.6828589 0 10 C-1.231394 6.30581799 -0.64432764 3.7943739 0 0 Z " fill="#76BB9C" transform="translate(38,96)"/>
<path d="M0 0 C0.99 0 1.98 0 3 0 C3.66 1.32 4.32 2.64 5 4 C4.01 4.33 3.02 4.66 2 5 C1.01 4.01 0.02 3.02 -1 2 C-0.67 1.34 -0.34 0.68 0 0 Z " fill="#65BB93" transform="translate(78,256)"/>
<path d="M0 0 C0.33 0.99 0.66 1.98 1 3 C1.66 3 2.32 3 3 3 C3 4.98 3 6.96 3 9 C1.68 8.34 0.36 7.68 -1 7 C-0.67 4.69 -0.34 2.38 0 0 Z " fill="#E9F8F2" transform="translate(13,147)"/>
<path d="M0 0 C0.66 0 1.32 0 2 0 C1.67 1.98 1.34 3.96 1 6 C1.66 6.33 2.32 6.66 3 7 C2.01 7.495 2.01 7.495 1 8 C-1.125 7.0625 -1.125 7.0625 -3 6 C-2.505 5.566875 -2.01 5.13375 -1.5 4.6875 C0.33218192 3.00259517 0.33218192 3.00259517 0 0 Z " fill="#7BBE9E" transform="translate(76,145)"/>
<path d="M0 0 C1.76462683 3.08809695 2 4.23312136 2 8 C1.34 8 0.68 8 0 8 C-0.38063221 5.6739143 -0.71269945 3.33944736 -1 1 C-0.67 0.67 -0.34 0.34 0 0 Z " fill="#64BC92" transform="translate(256,78)"/>
<path d="M0 0 C0.33 0.99 0.66 1.98 1 3 C-0.40445835 5.2636564 -2.1967913 7.0208685 -4 9 C-4.66 8.67 -5.32 8.34 -6 8 C-4.02 5.36 -2.04 2.72 0 0 Z " fill="#7BBB9E" transform="translate(56,61)"/>
<path d="M0 0 C0.66 0.33 1.32 0.66 2 1 C1.44855089 5.08072342 1.08669204 5.91330796 -2 9 C-1.34 6.03 -0.68 3.06 0 0 Z " fill="#85C5A8" transform="translate(260,209)"/>
<path d="M0 0 C2.31 0 4.62 0 7 0 C5.35 1.65 3.7 3.3 2 5 C1.34 4.34 0.68 3.68 0 3 C0 2.01 0 1.02 0 0 Z " fill="#DAF5E7" transform="translate(145,115)"/>
<path d="M0 0 C0.66 0.99 1.32 1.98 2 3 C0.625 6.6875 0.625 6.6875 -1 10 C-1.33 10 -1.66 10 -2 10 C-1.125 2.25 -1.125 2.25 0 0 Z " fill="#95CFB4" transform="translate(24,96)"/>
<path d="M0 0 C3 3.75 3 3.75 3 6 C2.01 6.33 1.02 6.66 0 7 C-0.66 5.35 -1.32 3.7 -2 2 C-1.34 2 -0.68 2 0 2 C0 1.34 0 0.68 0 0 Z " fill="#8CC3A9" transform="translate(272,80)"/>
<path d="M0 0 C3.59391114 1.33488128 6.75490696 2.96022723 10 5 C9.34 5.66 8.68 6.32 8 7 C6.66382648 6.02471263 5.3311249 5.04466681 4 4.0625 C3.2575 3.51722656 2.515 2.97195312 1.75 2.41015625 C1.1725 1.94480469 0.595 1.47945312 0 1 C0 0.67 0 0.34 0 0 Z " fill="#C3F4DE" transform="translate(219,33)"/>
</svg>
