<?xml version="1.0" standalone="no"?><!DOCTYPE svg PUBLIC "-//W3C//DTD SVG 1.1//EN" "http://www.w3.org/Graphics/SVG/1.1/DTD/svg11.dtd"><svg t="1721558500684" class="icon" viewBox="0 0 1024 1024" version="1.1" xmlns="http://www.w3.org/2000/svg" p-id="5275" xmlns:xlink="http://www.w3.org/1999/xlink" width="200" height="200"><path d="M128 0h768a128 128 0 0 1 128 128v768a128 128 0 0 1-128 128H128a128 128 0 0 1-128-128V128a128 128 0 0 1 128-128z" fill="#D74834" p-id="5276"></path><path d="M584.064 311.082667l-191.744-0.725334c-53.333333 0-83.2-16.256-89.472-48.853333-9.472-48.896 15.488-65.664 42.581333-71.381333l4.266667-0.682667 9.813333-0.853333 8.789334-0.469334 29.781333-0.853333 60.586667-0.213333 82.602666 0.768 88.32 1.450666c60.16-0.170667 90.709333 22.186667 91.690667 67.114667 0.981333 44.928-13.056 96.341333-42.112 154.368-49.493333 61.44-95.104 110.762667-136.917333 147.968l-11.306667 9.813333c-67.285333 57.344-108.629333 110.08-113.365333 136.96l128.170666 2.005334 95.658667 2.005333c56.746667 2.432 84.650667 23.594667 83.669333 63.488-0.981333 39.850667-30.72 59.818667-89.173333 59.904l-278.357333-2.901333c-55.509333-3.157333-83.584-25.258667-84.181334-66.261334-0.938667-61.482667 32.170667-148.010667 85.888-203.349333l14.336-14.506667 24.192-23.637333 35.2-33.152 26.709334-24.576 25.429333-23.04 29.44-26.197333 24.917333-21.589334c17.450667-14.592 32.298667-42.154667 44.586667-82.602666z" fill="#FFFFFF" p-id="5277"></path></svg>